<svg width="251" height="248" viewBox="0 0 251 248" fill="none" xmlns="http://www.w3.org/2000/svg">
<g clip-path="url(#clip0_1_14)">
<path d="M45.9112 35.5948H47.0738L46.1437 35.1295L45.9112 35.5948ZM48.934 34.1989C48.934 34.4315 48.934 34.4315 49.1666 34.4315L50.0967 33.7336C49.6316 33.5009 49.3991 33.5009 48.934 34.1989ZM39.8655 40.4803L40.563 40.015C40.7956 39.7824 40.7956 39.5497 40.7956 39.5497H40.3305L39.8655 40.4803C39.6329 40.4803 39.6329 40.2477 39.8655 40.4803ZM44.9811 33.7336H44.7485L44.2835 34.1989H44.9811V33.7336ZM40.098 39.3171L41.4932 38.1539C41.7257 37.9212 41.7257 37.6886 41.7257 37.4559H41.0281L38.2378 40.015L37.7727 40.9456L39.4004 39.5497L40.098 39.3171Z" fill="black"/>
<path d="M22.4259 58.1614V57.6961C22.5156 57.1833 22.7055 56.6933 22.9848 56.2542C23.2641 55.815 23.6273 55.4354 24.0536 55.137L26.1464 53.7411L27.309 52.3452L28.9367 50.7167L29.8668 49.7861L30.7969 49.0882C31.6275 48.6105 32.2804 47.8757 32.6571 46.9944L33.5872 45.8312C34.4993 44.9363 35.2819 43.9183 35.9125 42.8068L36.3776 42.1088L37.0751 41.6435L36.6101 40.9456L37.5402 39.7824C39.4004 38.3865 40.7956 36.5253 42.6558 35.1295L43.3534 34.4315C43.6007 33.8653 44.004 33.3812 44.516 33.0357L46.3762 32.1051H47.3063C47.9909 31.837 48.5645 31.345 48.934 30.7092V30.2439C49.6202 28.8988 50.6669 27.7711 51.9569 26.9869L53.8171 25.8236L54.2821 25.3584L55.2122 24.4278L57.5375 23.2645H58.0026L55.4448 24.1951L52.1894 26.5216C50.7942 27.6848 48.934 27.9175 48.0039 29.7786H48.7015C47.0738 30.2439 45.4461 30.9418 44.7485 32.5704C44.0509 34.1989 42.8883 33.9662 41.9582 34.6642C41.7536 34.7169 41.573 34.8378 41.4462 35.007C41.3194 35.1761 41.2539 35.3834 41.2606 35.5948C39.4004 35.3621 38.7028 36.758 37.7727 37.6886V39.5497C36.255 40.2697 34.967 41.3973 34.0523 42.8068C30.3319 43.0394 30.3319 47.6923 27.0765 48.6229H26.8439C26.8031 48.6936 26.7816 48.7739 26.7816 48.8555C26.7816 48.9372 26.8031 49.0175 26.8439 49.0882C26.1464 49.0882 25.6813 49.5535 25.9138 50.2514L25.4488 51.4146C23.8211 52.3452 24.0536 53.9737 23.1235 55.3696C21.2633 56.5328 20.5657 58.8593 19.1706 60.4878L19.8681 61.651L20.3332 61.1858C20.9612 60.1312 21.6604 59.1207 22.4259 58.1614ZM125.203 7.6773L126.598 8.14259H127.063C128.067 8.65192 129.212 8.81547 130.318 8.60788C131.789 8.33775 133.302 8.41745 134.737 8.84053H137.527C138.014 8.73526 138.519 8.74344 139.003 8.86446C139.487 8.98547 139.937 9.21607 140.317 9.53846C140.338 9.57383 140.348 9.61395 140.348 9.65479C140.348 9.69562 140.338 9.73574 140.317 9.77111H139.387C139.367 9.80648 139.356 9.84659 139.356 9.88743C139.356 9.92827 139.367 9.96839 139.387 10.0038H141.015C141.987 9.627 143.065 9.627 144.038 10.0038C144.503 10.0038 144.27 10.2364 144.503 10.469L145.665 10.9343H145.2C144.735 10.0038 144.038 10.0038 143.34 10.0038C140.211 8.54994 136.79 7.83364 133.341 7.90995H131.481C128.773 7.08204 125.934 6.76646 123.11 6.97936H123.575L125.203 7.6773ZM159.617 16.0525C159.912 16.3563 160.292 16.5634 160.707 16.6465C161.122 16.7296 161.553 16.6847 161.942 16.5178H163.337C162.151 15.5429 160.685 14.9724 159.152 14.8893L157.524 14.424L158.687 15.122L159.617 16.0525ZM151.711 13.0281C151.711 13.2608 151.944 13.4934 152.176 13.7261H152.641L153.804 13.0281C152.603 12.2821 151.254 11.8058 149.851 11.6323L151.478 12.5629L151.711 13.0281ZM168.918 19.3096L170.778 20.4728C170.313 19.7749 169.848 19.3096 168.918 19.3096Z" fill="black"/>
<path d="M230.073 177.043L231.468 173.321L232.863 169.831C233.328 168.668 234.258 165.644 234.723 163.782C234.83 163.194 235.068 162.637 235.421 162.154H235.653V159.595C236.816 159.362 236.583 158.199 236.816 157.501L238.676 146.567C239.867 141.832 239.867 136.877 238.676 132.143C238.78 131.475 238.729 130.792 238.527 130.146C238.326 129.501 237.979 128.91 237.513 128.42V118.417C236.816 116.323 238.211 113.996 236.583 112.135L234.723 104.69C234.763 104.538 234.763 104.378 234.723 104.225L234.258 102.829C234.194 102.683 234.161 102.524 234.161 102.364C234.161 102.204 234.194 102.045 234.258 101.899H234.491C235.188 101.899 235.188 100.735 235.188 99.8049C235.049 98.899 234.733 98.0295 234.258 97.2458L233.561 96.3152C233.225 95.8409 233.061 95.2666 233.095 94.6867C233.175 93.1212 233.018 91.5525 232.63 90.0338V88.6379C232.165 87.0094 231.7 85.1482 231.235 83.5197L230.77 82.3565C230.262 81.5891 229.943 80.712 229.84 79.7974C229.716 79.1415 229.48 78.512 229.142 77.9362L227.747 75.6098C227.559 75.4414 227.338 75.3133 227.098 75.2333C226.858 75.1533 226.604 75.1231 226.352 75.1445H226.12V74.4465H225.655V72.5854H225.422V72.1201C225.432 72.0428 225.432 71.9647 225.422 71.8874V71.4221C225.655 70.9569 225.655 70.7242 225.19 70.2589C224.789 69.8612 224.472 69.3863 224.259 68.863L223.794 67.4672C223.486 66.4184 222.927 65.4603 222.167 64.6754C221.676 64.2144 221.281 63.661 221.004 63.0469L219.376 59.3246C219.019 58.4893 218.55 57.7066 217.981 56.9981L216.586 55.137C216.162 54.5804 215.847 53.949 215.656 53.2758L215.191 52.5779C215.069 52.413 214.985 52.2232 214.945 52.0222C214.905 51.8212 214.909 51.6137 214.958 51.4146C214.958 51.2341 214.916 51.0559 214.836 50.8944C214.755 50.7329 214.638 50.5924 214.493 50.4841L213.563 49.7861V50.2514C213.796 50.7167 213.563 50.9493 213.331 50.9493H212.866L213.563 53.2758L214.261 54.439L215.888 56.5328H215.656L215.191 56.0675L214.726 55.6023C214.621 54.9216 214.288 54.297 213.781 53.8316C213.273 53.3663 212.622 53.0882 211.935 53.0432V51.4146C211.238 48.6229 208.215 48.3902 206.82 46.5291C206.6 45.9957 206.251 45.5253 205.805 45.1599C205.358 44.7944 204.828 44.5455 204.262 44.4353L202.402 42.3415C200.469 39.5735 198.022 37.2038 195.194 35.3621L193.333 33.9662L192.403 33.2683C190.776 31.6398 190.078 29.0807 187.288 29.0807L185.427 27.9175L183.335 26.2889C182.968 25.4588 182.387 24.7412 181.651 24.2097C180.916 23.6782 180.052 23.352 179.149 23.2645C177.637 21.8883 175.794 20.9266 173.801 20.4728L174.266 20.9381L175.429 21.8687L178.452 23.4972C180.263 24.4759 181.911 25.7319 183.335 27.2195C184.375 28.2284 185.548 29.0895 186.823 29.7786L188.218 30.9418C188.45 31.1745 188.683 31.4071 188.45 31.6398H188.218L186.125 30.9418C184.469 30.6284 182.89 29.9963 181.474 29.0807L178.684 27.6848L175.661 26.0563H175.196C174.499 25.8236 174.266 25.1257 173.336 24.8931L171.476 24.4278L165.663 23.2645C164.853 22.8833 164.138 22.3271 163.57 21.636C162.82 21.6068 162.094 21.3647 161.477 20.9381L159.152 20.0075C156.935 19.5631 154.758 18.9407 152.641 18.1463L151.246 17.6811L148.921 16.9831H147.758L147.293 16.2852V16.0525H143.573L142.177 14.8893L141.247 15.3546L140.317 15.8199H139.852L137.759 14.6567C136.364 16.0525 135.202 14.1914 134.039 14.424L131.714 13.7261C131.289 13.9711 130.808 14.1001 130.318 14.1001C129.829 14.1001 129.348 13.9711 128.923 13.7261H126.133C125.805 13.6706 125.507 13.4993 125.294 13.2433C125.08 12.9873 124.966 12.6634 124.97 12.3302L125.668 11.8649H127.063C127.193 12.0768 127.272 12.3155 127.296 12.5629C127.296 13.0281 127.761 13.0281 128.458 13.0281H128.923L127.993 11.6323C127.672 11.3727 127.293 11.1948 126.888 11.1137C126.483 11.0327 126.064 11.051 125.668 11.167L123.343 11.8649H123.11C123.808 12.3302 123.575 12.5629 123.575 13.0281H119.855L118.925 12.5629L117.064 11.6323H116.832L115.204 11.167H109.856L110.786 10.7017L112.646 10.2364H113.344L117.297 9.53846L119.855 9.07317L121.25 8.60788H118.692C116.084 8.06869 113.394 8.06869 110.786 8.60788H107.763L99.8575 8.37524C96.6021 8.60788 93.3467 8.37524 90.7889 11.167C84.9757 10.2364 79.8601 12.7955 74.7445 15.3546L69.6289 17.4484C66.3931 17.9069 63.3833 19.3719 61.0254 21.636H61.723L62.8857 20.9381L64.7459 19.7749L67.7687 18.379L70.094 17.9137C71.5024 16.9358 73.0789 16.226 74.7445 15.8199L76.8373 15.122H77.3023C77.5349 15.5872 78.465 15.122 78.93 15.122H79.3951C79.6276 15.122 79.6276 15.3546 79.3951 15.3546L77.9999 16.2852L80.3252 15.5872L82.1854 15.122L79.1625 16.7505L76.1397 17.6811C75.841 17.7714 75.5636 17.9209 75.3239 18.1208C75.0842 18.3206 74.8872 18.5667 74.7445 18.8443L74.047 20.0075H74.7445L75.6746 19.5422C75.9135 19.1823 76.2215 18.8735 76.5808 18.6339C76.9401 18.3943 77.3435 18.2285 77.7674 18.1463L81.2553 16.9831H82.4179C82.4796 16.9523 82.551 16.9472 82.6164 16.969C82.6818 16.9908 82.7359 17.0377 82.7667 17.0994C82.7976 17.1611 82.8026 17.2326 82.7808 17.298C82.759 17.3635 82.7121 17.4176 82.6504 17.4484C82.1854 17.9137 81.2553 18.1463 80.7902 18.6116H81.2553L73.8144 20.7054L64.9784 24.4278C63.4601 25.7955 61.6201 26.7559 59.6303 27.2195C58.452 28.2709 57.1187 29.1341 55.6773 29.7786L53.8171 30.2439C53.5581 30.8399 53.1379 31.3517 52.6038 31.7217C52.0697 32.0916 51.443 32.305 50.7942 32.3377L50.0967 33.5009C49.368 34.5506 48.4148 35.4248 47.3063 36.06H47.0738V35.8274L46.6088 36.2927L46.1437 36.758L43.8184 37.2233H42.6558L41.7257 38.3865C41.4932 38.6191 41.4932 38.8518 41.7257 38.8518H41.9582C40.5631 40.2477 39.6329 42.1088 37.7727 42.8068L34.7499 46.2964C33.3547 49.0882 30.5644 50.0188 28.7042 52.3452C26.844 54.6717 25.4488 61.4184 19.6356 62.349L19.1706 61.651L18.7055 62.8143C18.5011 63.4821 18.1867 64.1111 17.7754 64.6754C16.7299 66.2352 15.7974 67.8679 14.9851 69.561C14.7828 69.913 14.7012 70.3215 14.7526 70.7242C14.7878 71.3772 14.6258 72.0258 14.2875 72.5854L13.1249 75.1445H13.5899C14.2875 75.1445 14.2875 75.8424 14.52 76.5404L16.3802 73.9812C16.7251 73.3459 17.2006 72.7909 17.7754 72.3527C18.6823 71.9014 19.4171 71.1662 19.8681 70.2589L20.5657 69.561L21.4958 68.6304L22.891 66.0713H23.3561C23.5886 66.3039 23.5886 66.3039 23.8211 66.0713L24.2862 65.1407H25.4488V67.0019L26.6114 65.8387C26.7135 65.6618 26.7672 65.4612 26.7672 65.257C26.7672 65.0529 26.7135 64.8523 26.6114 64.6754C26.6007 64.5494 26.6159 64.4225 26.6558 64.3025C26.6958 64.1825 26.7598 64.0719 26.844 63.9775C27.1503 63.6391 27.3873 63.2439 27.5415 62.8143C27.6599 62.341 27.8908 61.9035 28.2147 61.5389C28.5387 61.1743 28.9459 60.8935 29.4018 60.7205L30.0993 60.2552L30.7969 59.5572C31.6162 58.9646 32.2591 58.1605 32.6571 57.2308L32.1921 56.5328C32.1921 56.3002 32.4246 55.8349 32.6571 55.6023H33.8198L35.2149 53.7411L36.6101 53.0432H37.0751C32.3022 58.2178 28.0208 63.8254 24.2862 69.7936C19.0794 77.9149 14.9374 86.6721 11.9622 95.8499H10.7996L9.63696 94.9193C9.1719 94.454 9.40443 93.2908 8.70685 92.8255H8.93937C9.63696 91.6623 8.70685 90.0338 9.63696 88.8706C10.5671 87.7073 9.86948 85.6135 7.54421 86.0788C5.21894 86.5441 4.05631 87.242 4.52136 89.5685C4.98641 91.895 2.19609 93.7561 1.96356 96.3152C1.73103 98.8743 0.800927 97.4784 1.26598 98.409V107.482C1.49851 109.343 0.103345 111.67 3.1262 112.368L6.14905 114.462C6.38158 115.625 4.98641 118.184 8.24179 117.486C7.81201 121.349 7.57918 125.231 7.54421 129.118C7.54421 131.677 7.77674 134.236 7.77674 136.796V135.865C7.54421 134.934 7.54421 134.004 7.31168 132.841L6.6141 133.538V133.073H5.45147C5.45147 134.236 5.21894 134.934 4.52136 135.167C4.33339 135.524 4.25264 135.928 4.28883 136.33C4.28883 136.563 4.52136 137.028 4.75389 136.796C4.98641 136.563 5.68399 137.261 6.38158 137.726C7.07916 138.191 5.91652 138.424 5.45147 138.191C4.98641 137.959 4.98641 138.424 4.98641 138.889V139.587L6.14905 143.077C6.14905 143.775 5.91652 144.473 5.91652 145.171C5.91652 145.82 6.07624 146.459 6.38158 147.032H5.68399V146.334L4.05631 145.869V144.473C4.12135 144.088 4.12135 143.695 4.05631 143.31C3.73673 141.93 3.50375 140.531 3.35872 139.122C2.91688 136.432 2.76099 133.702 2.89367 130.979C2.85748 130.577 2.93823 130.173 3.1262 129.816V130.281C3.23769 130.662 3.3155 131.051 3.35872 131.445C3.35364 131.77 3.43381 132.091 3.59125 132.375C3.82378 132.841 4.05631 133.306 4.52136 133.306C4.98641 133.306 4.75389 133.073 4.75389 132.841C4.72389 132.445 4.64581 132.054 4.52136 131.677C4.12926 130.713 3.89376 129.692 3.82378 128.653C3.73515 128.059 3.49488 127.498 3.1262 127.024C2.7692 126.387 2.60747 125.659 2.66114 124.931V123.069C2.66114 122.372 2.89367 121.674 2.89367 120.976C2.92327 120.813 2.91784 120.646 2.87774 120.485C2.83765 120.325 2.7638 120.175 2.66114 120.045H2.42862C0.568399 120.976 0.800927 120.51 0.103345 123.767V127.955C0.103345 129.584 -0.129182 131.212 0.103345 132.841C0.0668291 134.636 0.222738 136.43 0.5684 138.191C0.622487 138.577 0.622487 138.969 0.5684 139.355C0.543057 140.06 0.621401 140.766 0.800927 141.448C0.989876 142.445 1.06786 143.459 1.03345 144.473C0.89383 145.809 1.05267 147.16 1.49851 148.428C1.55054 148.736 1.55054 149.05 1.49851 149.358C1.45514 149.988 1.53411 150.62 1.73103 151.22C1.95148 151.901 2.10719 152.602 2.19609 153.313C2.44538 155.048 2.83419 156.76 3.35872 158.432C3.59259 159.189 3.74842 159.969 3.82378 160.758C3.93022 161.347 4.16873 161.903 4.52136 162.387C5.11507 163.217 5.5126 164.172 5.68399 165.178C5.86866 165.967 6.10162 166.744 6.38158 167.505L7.31168 170.762C7.59921 171.988 8.06952 173.165 8.70685 174.251C9.5403 175.79 10.1658 177.433 10.5671 179.137L11.0321 180.3C11.6227 180.956 12.0244 181.76 12.1948 182.627C12.3676 183.307 12.6848 183.941 13.1249 184.488C13.3833 184.826 13.5441 185.228 13.5899 185.651C13.8224 186.349 14.055 186.582 14.52 186.349H14.7526V188.443L15.9152 190.769L17.0778 193.096L19.6356 195.887L20.5657 196.818C21.2633 197.516 22.1934 197.981 22.6585 199.144L23.5886 199.842C23.7816 199.975 23.9438 200.147 24.0642 200.348C24.1846 200.549 24.2603 200.773 24.2862 201.006L24.7512 202.634C25.098 203.404 25.5694 204.112 26.1464 204.728L27.0765 205.193H27.7741C27.841 205.217 27.9018 205.255 27.9515 205.306C28.0013 205.357 28.0389 205.418 28.0613 205.485C28.0838 205.553 28.0905 205.624 28.081 205.695C28.0715 205.765 28.0461 205.832 28.0066 205.891C27.9677 206.278 27.9677 206.668 28.0066 207.054C28.1636 207.543 28.4946 207.957 28.9367 208.218H29.4018C30.3319 207.985 31.262 208.683 32.1921 209.846H32.4246C32.4246 209.614 32.6571 209.614 32.4246 209.381V208.916C32.4246 208.683 32.6571 208.45 32.8897 208.683C33.1134 208.839 33.2946 209.048 33.4165 209.292C33.5383 209.536 33.5971 209.806 33.5872 210.079V210.544C33.758 211.515 34.0715 212.456 34.5174 213.336C35.68 214.034 35.68 214.034 35.68 213.569C35.68 213.103 35.68 213.103 36.145 213.103H37.0751L37.5402 213.801L39.4004 214.964C41.0281 216.826 43.5859 216.593 45.4461 217.756L49.3991 221.711H49.8641C50.2033 222.549 50.7074 223.311 51.3465 223.95C51.9856 224.59 52.7467 225.094 53.5846 225.433C53.8367 225.831 54.1783 226.165 54.582 226.407C54.9857 226.649 55.4404 226.794 55.9098 226.829C55.9098 227.993 57.305 228.225 58.4676 228.458C58.9447 228.996 59.6111 229.33 60.3279 229.388H60.7929C61.2366 229.85 61.7859 230.198 62.3935 230.4C63.0011 230.603 63.6487 230.655 64.2808 230.552L66.3736 232.413L71.9542 234.507V234.972C73.1168 237.531 75.9072 236.6 77.7674 237.298L80.3252 238.229H81.2553C84.0456 238.927 86.8359 240.323 89.8588 239.392C89.7683 239.696 89.7683 240.019 89.8588 240.323C92.4166 241.951 95.4394 240.323 98.2298 241.253C99.4945 241.725 100.871 241.806 102.183 241.486H102.415L104.275 241.951H104.973L107.066 242.417H107.763C107.94 242.314 108.141 242.261 108.345 242.261C108.549 242.261 108.749 242.314 108.926 242.417C110.055 242.841 111.224 243.152 112.414 243.347H113.809C114.057 243.204 114.337 243.129 114.623 243.129C114.909 243.129 115.189 243.204 115.437 243.347H124.505C125.75 243.47 127.006 243.392 128.226 243.114H130.551L131.714 242.649H139.387L140.782 242.184L141.945 241.486H147.06V242.882H144.038L141.247 243.347C140.317 243.58 139.62 243.347 138.922 243.58C138.189 243.9 137.396 244.058 136.597 244.045L133.574 244.743H132.644C131.48 244.533 130.282 244.613 129.156 244.976H124.97C124.641 245.123 124.285 245.2 123.924 245.2C123.563 245.2 123.207 245.123 122.878 244.976H112.414C111.963 244.89 111.498 244.908 111.054 245.029C110.611 245.15 110.201 245.37 109.856 245.674H109.159L108.461 245.208V244.51H105.671C104.708 244.114 103.687 243.878 102.648 243.812H96.8346L95.2069 243.347L94.0443 242.882L89.1612 241.951H87.9986L86.8359 241.486L81.9529 239.857L78.6975 238.927H73.5819C73.3494 238.927 73.3494 239.16 73.3494 239.392H73.8144C76.8373 240.555 79.8601 241.486 82.883 242.882H83.5806L85.6733 243.347L88.9287 244.278H91.9515L93.3467 244.743L94.9744 245.441L98.9273 246.139L101.485 246.604L104.043 247.069H105.903L107.763 247.535H114.972L117.297 248H122.645L124.97 247.535H130.086C131.016 247.535 131.481 247.302 131.714 246.837H134.039C134.381 246.865 134.726 246.817 135.047 246.697C135.369 246.576 135.66 246.385 135.899 246.139C135.667 246.372 135.899 246.372 136.132 246.604H137.062V246.139C137.062 245.906 137.062 245.906 137.527 245.674C137.992 245.441 138.922 245.441 139.155 245.906H140.085L140.782 245.441C141.247 245.441 141.247 245.441 141.247 245.674H142.875L144.038 245.208L145.898 244.278C146.13 244.976 146.828 245.208 148.921 244.743L151.944 243.812H154.734C156.827 243.58 159.384 243.812 161.012 242.184H161.477L162.407 241.486L164.965 240.788C166.613 240.449 168.188 239.818 169.616 238.927L170.546 238.462H170.778L172.871 237.066L173.801 236.6L174.964 236.135H175.894C176.824 235.902 176.824 235.902 177.056 235.205C177.289 234.507 177.056 234.972 176.591 234.972H176.359L177.289 233.809H177.754C178.452 233.576 178.917 233.343 179.382 233.576H179.847C180.346 233.436 180.8 233.17 181.167 232.803C181.533 232.436 181.799 231.981 181.94 231.482C182.637 230.552 184.497 231.017 184.962 229.621L194.961 222.409C197.519 222.176 198.216 219.85 200.077 218.454C201.937 217.058 205.425 215.895 207.052 213.336L209.145 212.405H209.378C209.963 212.549 210.581 212.459 211.102 212.155C211.622 211.851 212.004 211.357 212.168 210.777V211.707C214.028 210.777 216.354 212.405 218.214 210.544C220.074 208.683 218.214 204.263 220.539 201.704L222.167 200.54C223.924 197.528 225.107 194.214 225.655 190.769L226.12 190.304C226.12 189.606 226.12 188.675 227.05 188.21C227.462 187.887 227.739 187.422 227.825 186.905C227.911 186.388 227.801 185.858 227.515 185.418H227.05C227.111 185.312 227.143 185.192 227.143 185.069C227.143 184.947 227.111 184.827 227.05 184.72C228.677 184.72 228.91 183.092 229.84 182.394V179.137C229.809 178.983 229.809 178.825 229.84 178.672C229.968 178.137 230.046 177.592 230.073 177.043Z" fill="black"/>
<path d="M61.2579 21.636L60.5604 22.1013L59.6303 22.7993L60.7929 22.334L61.2579 21.636ZM75.4421 16.9831H75.6746L76.3722 16.5178H75.4421V16.9831ZM69.3964 19.3096L69.1639 19.5422H69.3964V19.3096ZM21.2633 60.9531L20.3332 61.8837H20.7982C20.9596 61.7926 21.09 61.6553 21.1729 61.4895C21.2558 61.3237 21.2872 61.1369 21.2633 60.9531ZM28.2391 52.8105C28.5449 52.3856 28.7804 51.9143 28.9367 51.4146C28.462 51.7041 28.0634 52.103 27.7741 52.5779C27.5415 52.8105 27.5415 53.0432 27.7741 53.0432L28.2391 52.8105ZM25.4488 56.3002V55.8349C24.9837 55.8349 24.2861 56.5328 23.5886 56.5328V56.9981C24.2861 57.6961 24.5187 57.4634 25.4488 56.3002ZM171.708 21.4034H171.941L170.778 20.7054L171.708 21.4034ZM165.895 18.1463C167.058 17.9137 167.755 19.0769 168.685 19.3096H168.918L168.22 18.8443L165.895 17.6811L163.337 16.5178L164.035 16.9831L165.895 18.1463ZM149.851 11.8649H149.618L146.828 11.3996H147.991L149.851 11.8649ZM154.501 13.4934L157.524 14.424C156.592 13.9072 155.563 13.5903 154.501 13.4934ZM133.574 13.4934C133.832 13.1555 133.993 12.7532 134.039 12.3302H132.876L132.179 13.0281L133.109 13.7261L133.574 13.4934ZM144.735 14.1914C144.727 14.2687 144.727 14.3467 144.735 14.424V14.1914ZM248.907 135.865H248.21V134.934H248.907C249.14 134.934 249.372 134.236 249.14 134.004C248.907 133.771 248.907 132.375 248.442 132.143C248.3 132.092 248.177 131.997 248.093 131.871C248.009 131.745 247.969 131.596 247.977 131.445L248.442 130.514C248.482 130.361 248.482 130.201 248.442 130.049H247.977L247.512 129.351C247.28 130.049 247.047 130.747 246.582 130.979C246.551 131.133 246.551 131.291 246.582 131.445C246.582 131.677 246.582 131.91 246.349 131.91H246.117C246.073 132.153 245.995 132.388 245.884 132.608C245.427 133.23 245.11 133.945 244.954 134.702C244.905 134.863 244.901 135.035 244.942 135.199C244.982 135.363 245.067 135.513 245.187 135.632H245.419C245.194 136.225 245.114 136.863 245.187 137.493V138.424C245.165 138.821 245.087 139.213 244.954 139.587H244.722L243.792 141.216V142.612C243.905 143.523 243.654 144.443 243.094 145.171H242.629L242.164 144.705C241.983 144.435 241.868 144.125 241.828 143.802C241.787 143.479 241.823 143.151 241.931 142.844C242.182 141.542 242.26 140.212 242.164 138.889C242.164 138.657 241.931 138.424 241.931 138.424C241.781 138.625 241.699 138.87 241.699 139.122V140.518C241.699 140.983 241.466 141.914 241.001 142.146C240.536 142.379 240.769 142.612 240.769 142.844L240.304 144.24L241.001 145.403C240.536 145.869 240.071 145.636 239.839 145.171V147.497H240.536V148.428C240.119 149.466 239.883 150.567 239.839 151.685C239.82 151.995 239.82 152.305 239.839 152.615C239.852 153.642 239.694 154.664 239.374 155.64C239.304 156.102 239.304 156.573 239.374 157.036L238.676 158.664C238.509 159.233 238.275 159.78 237.979 160.293L237.281 161.689L235.188 167.97C235.886 170.064 234.258 171.46 233.328 172.856C233.459 173.831 233.358 174.823 233.035 175.753C232.712 176.682 232.175 177.523 231.468 178.206V179.137C231.468 179.37 231.7 179.602 232.165 179.37L233.095 178.672L233.561 177.741H234.026C234.258 177.974 234.491 177.974 234.956 177.508H235.421C235.608 177.683 235.732 177.915 235.774 178.167C235.816 178.419 235.773 178.678 235.653 178.904C235.49 179.511 235.411 180.137 235.421 180.765C235.421 180.998 235.421 181.231 235.653 181.231H236.118C236.351 181.463 236.583 181.231 236.816 180.533L237.281 179.37H237.979C238.909 179.137 238.909 179.137 239.374 177.974L240.536 175.88L241.234 174.484L242.164 172.158C242.13 171.326 242.376 170.507 242.862 169.831C243.021 169.64 243.127 169.41 243.168 169.165C243.209 168.919 243.183 168.668 243.094 168.435C243.094 167.97 243.094 167.737 243.559 167.039L244.257 166.109L245.419 163.782C245.505 163.071 245.661 162.37 245.884 161.689C246.341 160.746 246.579 159.712 246.582 158.664C246.726 157.94 246.961 157.236 247.28 156.57V155.407C247.047 154.942 247.047 154.942 247.28 154.011C247.512 153.081 247.512 153.546 247.745 153.546C247.829 153.64 247.893 153.751 247.933 153.871C247.973 153.991 247.988 154.118 247.977 154.244L248.442 153.081C248.737 152.421 248.895 151.709 248.907 150.987V150.289C248.907 150.056 248.907 149.591 248.675 149.591V150.522C248.21 150.522 247.977 150.987 247.512 151.22C247.629 150.605 247.706 149.983 247.745 149.358L248.675 148.893C248.856 148.713 248.993 148.493 249.074 148.251C249.155 148.008 249.177 147.75 249.14 147.497C249.115 147.265 249.115 147.031 249.14 146.799C249.455 145.743 249.611 144.645 249.605 143.542V143.077L250.302 140.75H250.535C250.635 140.667 250.71 140.558 250.751 140.435C250.792 140.311 250.798 140.179 250.768 140.053H250.535C250.459 139.728 250.461 139.389 250.542 139.066C250.623 138.742 250.78 138.442 251 138.191C250.856 137.667 250.592 137.184 250.229 136.78C249.866 136.376 249.413 136.063 248.907 135.865ZM21.0308 71.6548C21.084 71.5043 21.084 71.34 21.0308 71.1895L20.5657 70.7242L20.1007 71.1895L19.4031 72.5854C19.4031 73.2833 18.7055 73.9812 18.7055 74.6792V75.1445H18.938L21.0308 71.6548ZM244.954 129.351H245.187C245.681 128.51 245.846 127.515 245.652 126.559C245.61 126.341 245.632 126.116 245.715 125.91C245.797 125.703 245.937 125.525 246.117 125.396H246.349V124.931L245.884 124.465H245.652C245.419 124.698 245.187 125.163 244.954 125.163C244.722 125.163 244.722 125.396 244.722 125.861V126.559C244.538 127.493 244.619 128.46 244.954 129.351ZM30.5644 209.614C30.3318 209.614 30.5644 210.079 30.5644 210.311L32.4246 212.173H32.6571C32.1921 211.475 31.9595 210.777 32.1921 210.544C31.7661 210.511 31.3604 210.349 31.0294 210.079L30.5644 209.614ZM247.047 127.257H247.28C247.35 126.794 247.35 126.324 247.28 125.861C246.582 126.094 246.582 126.094 246.582 127.257C246.582 128.42 246.815 127.49 247.047 127.257Z" fill="black"/>
<path d="M247.977 144.24C248.099 144.075 248.183 143.886 248.223 143.684C248.263 143.483 248.259 143.276 248.21 143.077C248.21 142.844 247.977 142.612 247.977 142.844H247.512V143.31C247.512 144.24 247.745 144.473 247.977 144.24ZM248.21 125.163H247.977V126.559C248.198 126.129 248.279 125.641 248.21 125.163ZM39.6329 215.43H39.1679V215.895L39.6329 216.36H40.098V215.895L39.6329 215.43ZM241.001 137.959C241.001 137.726 241.001 137.726 240.769 137.726L241.001 137.959ZM22.891 201.238L24.0536 202.402L23.1235 201.006L22.891 201.238Z" fill="black"/>
<path d="M215.888 54.6717L215.423 53.9737H215.191L215.888 54.6717ZM13.3574 75.3771C13.4919 75.2578 13.5752 75.0911 13.5899 74.9118V75.3771H13.3574ZM38.0052 215.197H37.7727C38.0052 215.43 38.2378 215.197 38.0052 214.964V215.197ZM38.4703 216.826H38.7028L38.4703 216.593V216.826Z" fill="black"/>
<path d="M166.55 89.05L158 105.85C157.4 107.15 156.8 108.5 156.2 109.9C155.7 111.2 155.15 112.5 154.55 113.8C153.65 116.2 152.75 118.4 151.85 120.4C150.95 122.3 150.05 123.7 149.15 124.6C148.95 124.8 148.85 125 148.85 125.2C148.45 125.9 148.05 126.55 147.65 127.15C147.25 127.75 146.85 128.25 146.45 128.65L145.55 130.6C145.35 130.8 145.15 131.2 144.95 131.8L144.5 132.7C144.5 132.8 144.45 132.85 144.35 132.85C144.35 132.85 144.35 132.9 144.35 133C143.85 134.2 143.3 135.35 142.7 136.45C142.1 137.45 141.55 138.4 141.05 139.3C140.95 139.7 140.75 140.1 140.45 140.5C140.25 140.9 140.1 141.2 140 141.4V141.7C139.9 141.9 139.75 142.15 139.55 142.45C139.45 142.75 139.3 143 139.1 143.2L137 147.4V175.3C137.2 176.1 137.2 176.8 137 177.4C137 177.7 136.9 178.05 136.7 178.45L136.25 179.35C137.05 178.55 137.4 178.2 137.3 178.3C137.3 178.4 137.05 178.7 136.55 179.2C136.15 179.6 135.75 179.95 135.35 180.25C135.25 180.25 135.1 180.35 134.9 180.55C134.7 180.75 134.6 180.85 134.6 180.85L133.7 182.2C133.6 182.7 133.25 183.25 132.65 183.85L132.2 184.3C132.2 184.3 132.15 184.3 132.05 184.3C132.05 184.3 132.05 184.35 132.05 184.45C131.95 184.45 131.9 184.45 131.9 184.45C131.9 184.55 131.85 184.6 131.75 184.6C131.65 185 131.55 185.4 131.45 185.8C131.45 186.3 131.35 186.75 131.15 187.15C131.05 187.25 130.9 187.55 130.7 188.05C130.6 188.55 130.35 188.6 129.95 188.2C129.65 187.9 129.4 187.4 129.2 186.7C129.1 186.1 128.95 185.65 128.75 185.35C128.55 185.05 128.25 184.7 127.85 184.3C127.45 184.1 127.1 183.75 126.8 183.25C126.5 182.85 126.25 182.6 126.05 182.5C126.05 183 125.95 183.35 125.75 183.55C125.65 183.65 125.55 183.6 125.45 183.4C125.35 183.2 125.25 183.05 125.15 182.95L124.55 182.05C124.45 182.25 124.3 182.45 124.1 182.65C124 182.85 123.9 183.05 123.8 183.25C123.7 183.55 123.55 183.85 123.35 184.15C123.15 184.55 122.9 184.95 122.6 185.35C122.4 185.85 122.1 186.35 121.7 186.85C121.5 187.15 121.25 187.35 120.95 187.45C120.75 187.65 120.55 187.85 120.35 188.05C120.25 188.55 120.15 189.05 120.05 189.55C119.95 190.15 119.85 190.7 119.75 191.2C119.65 191.6 119.55 192 119.45 192.4C119.45 192.9 119.35 193.4 119.15 193.9C119.05 194.3 118.95 194.9 118.85 195.7C118.75 196.5 118.6 196.7 118.4 196.3C117.3 195.2 116.8 194.7 116.9 194.8C117 194.9 117.3 195.3 117.8 196C118.3 196.8 118.6 197.55 118.7 198.25C118.8 199.05 118.3 199.5 117.2 199.6C116.2 199.6 115.7 199.05 115.7 197.95C115.8 196.85 116 195.55 116.3 194.05C116.7 192.55 116.8 191.3 116.6 190.3C116.6 190.2 116.55 190.15 116.45 190.15C116.35 190.25 116.25 190.25 116.15 190.15C115.85 190.15 115.65 190.1 115.55 190C114.75 189.8 114.2 189.6 113.9 189.4C113.6 189.2 113.25 188.9 112.85 188.5C112.75 188.4 112.65 188.2 112.55 187.9C112.45 187.7 112.35 187.7 112.25 187.9C112.15 188.7 112.15 189.85 112.25 191.35C112.35 192.85 112.4 194.05 112.4 194.95C112.5 195.95 112.3 196.1 111.8 195.4C111 194.1 110.75 192.6 111.05 190.9C111.35 189.3 111.4 187.7 111.2 186.1C111.2 185.9 111.15 186 111.05 186.4C111.05 186.9 111 187.35 110.9 187.75C110.9 188.25 110.85 188.4 110.75 188.2C110.45 187.5 110.3 186.75 110.3 185.95C110.4 185.25 110.35 184.55 110.15 183.85C109.85 183.65 109.55 183.4 109.25 183.1C109.05 182.9 108.85 182.7 108.65 182.5C108.65 182.7 108.6 182.9 108.5 183.1C108.5 183.3 108.45 183.5 108.35 183.7H107.15C106.05 183.6 105.2 183.15 104.6 182.35C104.5 182.75 104.45 183.1 104.45 183.4C104.45 183.8 104.35 184.2 104.15 184.6C103.95 184.8 103.75 184.7 103.55 184.3C103.35 183.9 103.25 183.55 103.25 183.25L102.2 180.85C102 180.75 101.8 180.65 101.6 180.55C101.4 180.35 101.2 180.2 101 180.1C100 179.3 99.5 178.25 99.5 176.95V147.4L98.3 145.15L97.85 144.25C97.75 144.05 97.65 143.85 97.55 143.65C97.45 143.45 97.35 143.25 97.25 143.05C97.15 142.95 96.95 142.6 96.65 142C96.65 141.8 96.55 141.6 96.35 141.4L94.1 136.9C93.7 136.4 93.25 135.75 92.75 134.95C92.25 134.05 91.7 133.05 91.1 131.95C90.9 131.55 90.7 131.15 90.5 130.75C90.3 130.35 90.1 129.95 89.9 129.55C88.8 127.45 87.6 125 86.3 122.2C85 119.3 83.65 116.35 82.25 113.35L71.9 92.95C71.5 92.15 71.1 91.35 70.7 90.55C70.3 89.65 69.85 88.75 69.35 87.85L67.55 84.25C67.45 83.95 67.3 83.65 67.1 83.35C66.9 82.95 66.7 82.6 66.5 82.3C66.5 82.3 66.4 82.05 66.2 81.55C66 81.05 65.85 80.75 65.75 80.65C65.55 80.25 65.45 79.8 65.45 79.3C65.45 78.4 65.8 77.6 66.5 76.9C66.8 76.6 67.05 76.4 67.25 76.3C67.55 76.2 67.8 76.15 68 76.15C68.2 76.05 68.55 76 69.05 76H92.75C93.45 76 94.15 76 94.85 76C95.65 75.9 96.4 75.9 97.1 76C97.9 76 98.65 76.15 99.35 76.45C100.05 76.65 100.65 76.95 101.15 77.35C101.75 77.75 102.35 78.35 102.95 79.15C103.75 80.45 104.45 81.8 105.05 83.2C105.65 84.5 106.3 85.8 107 87.1C107.6 88.1 108.15 89.2 108.65 90.4C109.25 91.6 109.85 92.8 110.45 94L116.45 106.15C116.65 106.35 116.8 106.6 116.9 106.9C117 107.1 117.1 107.35 117.2 107.65C117.2 107.85 117.3 108.05 117.5 108.25C117.6 108.35 117.65 108.5 117.65 108.7C117.65 108.8 117.7 108.9 117.8 109L118.25 109.45L118.55 109.3C118.55 109.2 118.6 109.1 118.7 109C118.8 108.9 118.85 108.8 118.85 108.7C118.85 108.5 118.9 108.35 119 108.25C119.5 107.45 119.9 106.65 120.2 105.85L122.6 101.05C123.4 99.45 124.2 97.85 125 96.25C125.8 94.65 126.55 93.05 127.25 91.45L131.9 82.45C132.3 81.65 132.65 80.9 132.95 80.2C133.35 79.4 133.85 78.7 134.45 78.1C134.95 77.6 135.6 77.15 136.4 76.75C137.2 76.25 138.2 76 139.4 76C139.8 75.9 140.45 75.9 141.35 76C142.25 76 143.1 76 143.9 76H165.35C165.85 76 166.35 76 166.85 76C167.45 75.9 168 75.9 168.5 76C168.9 76.1 169.3 76.3 169.7 76.6C170.3 77 170.7 77.6 170.9 78.4C171 78.6 171.05 78.9 171.05 79.3C171.05 79.8 170.95 80.25 170.75 80.65C170.65 81.05 170.45 81.5 170.15 82C169.85 82.4 169.6 82.85 169.4 83.35C169.3 83.45 169.1 83.8 168.8 84.4C168.4 85.2 168.05 86 167.75 86.8C167.45 87.6 167.05 88.35 166.55 89.05Z" fill="white"/>
</g>
<defs>
<clipPath id="clip0_1_14">
<rect width="251" height="248" fill="white"/>
</clipPath>
</defs>
</svg>
