<?xml version="1.0" standalone="no"?>
<!DOCTYPE svg PUBLIC "-//W3C//DTD SVG 20010904//EN"
 "http://www.w3.org/TR/2001/REC-SVG-20010904/DTD/svg10.dtd">
<svg version="1.0" xmlns="http://www.w3.org/2000/svg"
 width="134.000000pt" height="134.000000pt" viewBox="0 0 134.000000 134.000000"
 preserveAspectRatio="xMidYMid meet">
<metadata>
Created by potrace 1.10, written by Peter Selinger 2001-2011
</metadata>
<g transform="translate(0.000000,134.000000) scale(0.100000,-0.100000)"
fill="#000000" stroke="none">
<path d="M631 928 c1 -61 2 -64 45 -102 l44 -39 0 102 0 101 -45 0 -45 0 1
-62z"/>
<path d="M505 844 c-22 -7 -40 -14 -40 -14 0 0 -1 -21 -2 -46 -1 -42 0 -45 15
-31 17 15 39 20 79 18 14 -1 72 -51 160 -140 l138 -139 69 -5 69 -5 -164 165
c-90 90 -177 172 -194 182 -43 27 -84 31 -130 15z m265 -199 c47 -47 82 -85
80 -85 -3 0 -43 38 -90 85 -47 47 -82 85 -80 85 3 0 43 -38 90 -85z"/>
<path d="M350 600 l0 -250 45 0 45 0 0 91 0 91 32 -27 c28 -24 39 -27 88 -23
62 4 105 30 134 80 l18 30 -41 41 -41 42 0 -31 c0 -45 -45 -84 -97 -84 -34 0
-46 6 -67 31 -28 33 -28 31 -26 167 l1 92 -45 0 -46 0 0 -250z m77 -61 c-20
-32 -37 -23 -37 19 0 51 9 58 31 26 14 -21 15 -31 6 -45z"/>
<path d="M816 800 c-25 -27 -46 -53 -46 -58 0 -9 43 -52 52 -52 3 0 38 36 78
80 l72 80 -55 0 c-52 0 -56 -2 -101 -50z"/>
<path d="M687 514 l-29 -34 31 0 c29 0 31 3 31 35 0 19 -1 35 -2 34 -2 0 -16
-16 -31 -35z"/>
</g>
</svg>
