<svg width="474" height="358" viewBox="0 0 474 358" fill="none" xmlns="http://www.w3.org/2000/svg">
<circle cx="103" cy="204" r="103" fill="#5DCA76"/>
<circle cx="103.5" cy="204.5" r="92.5" fill="#EFFCF2"/>
<path d="M61.2344 235H54.0078V187.344L39.125 193.008V186.406L60.6484 178.125H61.2344V235ZM121.547 213.242C121.547 216.862 121.13 220.078 120.297 222.891C119.464 225.677 118.266 228.021 116.703 229.922C115.141 231.849 113.227 233.307 110.961 234.297C108.695 235.286 106.104 235.781 103.188 235.781C100.297 235.781 97.7057 235.299 95.4141 234.336C93.1224 233.346 91.1823 231.875 89.5938 229.922C88.0052 228.021 86.7943 225.677 85.9609 222.891C85.1276 220.078 84.7109 216.862 84.7109 213.242V199.922C84.7109 196.302 85.1276 193.099 85.9609 190.312C86.7943 187.5 88.0052 185.13 89.5938 183.203C91.1562 181.276 93.0703 179.818 95.3359 178.828C97.6276 177.812 100.219 177.305 103.109 177.305C106.026 177.305 108.617 177.812 110.883 178.828C113.174 179.818 115.115 181.276 116.703 183.203C118.266 185.13 119.464 187.5 120.297 190.312C121.13 193.099 121.547 196.302 121.547 199.922V213.242ZM91.9766 211.797L114.125 194.805C113.917 192.93 113.539 191.276 112.992 189.844C112.471 188.385 111.755 187.174 110.844 186.211C109.958 185.221 108.865 184.479 107.562 183.984C106.286 183.49 104.802 183.242 103.109 183.242C101.391 183.242 99.8672 183.516 98.5391 184.062C97.237 184.583 96.1302 185.352 95.2188 186.367C94.125 187.643 93.3047 189.297 92.7578 191.328C92.237 193.333 91.9766 195.664 91.9766 198.32V207.852C91.9766 208.503 91.9766 209.154 91.9766 209.805C91.9766 210.456 91.9766 211.12 91.9766 211.797ZM114.281 214.766V206.719C114.281 206.328 114.281 205.586 114.281 204.492C114.281 203.372 114.281 202.448 114.281 201.719L92.1719 218.633C92.4062 220.534 92.8229 222.214 93.4219 223.672C94.0208 225.104 94.8021 226.289 95.7656 227.227C96.651 228.112 97.7188 228.789 98.9688 229.258C100.219 229.701 101.625 229.922 103.188 229.922C104.828 229.922 106.286 229.674 107.562 229.18C108.839 228.685 109.919 227.969 110.805 227.031C112.003 225.755 112.875 224.089 113.422 222.031C113.995 219.974 114.281 217.552 114.281 214.766ZM169.594 213.242C169.594 216.862 169.177 220.078 168.344 222.891C167.51 225.677 166.312 228.021 164.75 229.922C163.188 231.849 161.273 233.307 159.008 234.297C156.742 235.286 154.151 235.781 151.234 235.781C148.344 235.781 145.753 235.299 143.461 234.336C141.169 233.346 139.229 231.875 137.641 229.922C136.052 228.021 134.841 225.677 134.008 222.891C133.174 220.078 132.758 216.862 132.758 213.242V199.922C132.758 196.302 133.174 193.099 134.008 190.312C134.841 187.5 136.052 185.13 137.641 183.203C139.203 181.276 141.117 179.818 143.383 178.828C145.674 177.812 148.266 177.305 151.156 177.305C154.073 177.305 156.664 177.812 158.93 178.828C161.221 179.818 163.161 181.276 164.75 183.203C166.312 185.13 167.51 187.5 168.344 190.312C169.177 193.099 169.594 196.302 169.594 199.922V213.242ZM140.023 211.797L162.172 194.805C161.964 192.93 161.586 191.276 161.039 189.844C160.518 188.385 159.802 187.174 158.891 186.211C158.005 185.221 156.911 184.479 155.609 183.984C154.333 183.49 152.849 183.242 151.156 183.242C149.438 183.242 147.914 183.516 146.586 184.062C145.284 184.583 144.177 185.352 143.266 186.367C142.172 187.643 141.352 189.297 140.805 191.328C140.284 193.333 140.023 195.664 140.023 198.32V207.852C140.023 208.503 140.023 209.154 140.023 209.805C140.023 210.456 140.023 211.12 140.023 211.797ZM162.328 214.766V206.719C162.328 206.328 162.328 205.586 162.328 204.492C162.328 203.372 162.328 202.448 162.328 201.719L140.219 218.633C140.453 220.534 140.87 222.214 141.469 223.672C142.068 225.104 142.849 226.289 143.812 227.227C144.698 228.112 145.766 228.789 147.016 229.258C148.266 229.701 149.672 229.922 151.234 229.922C152.875 229.922 154.333 229.674 155.609 229.18C156.885 228.685 157.966 227.969 158.852 227.031C160.049 225.755 160.922 224.089 161.469 222.031C162.042 219.974 162.328 217.552 162.328 214.766Z" fill="#62C976"/>
<path d="M19.35 341.9V339.44H25.02C25.8 339.44 26.49 339.28 27.09 338.96C27.71 338.64 28.19 338.19 28.53 337.61C28.89 337.03 29.07 336.34 29.07 335.54C29.07 334.74 28.89 334.05 28.53 333.47C28.19 332.89 27.71 332.44 27.09 332.12C26.49 331.8 25.8 331.64 25.02 331.64H19.35V329.18H25.2C26.48 329.18 27.62 329.44 28.62 329.96C29.64 330.48 30.44 331.22 31.02 332.18C31.62 333.12 31.92 334.24 31.92 335.54C31.92 336.82 31.62 337.94 31.02 338.9C30.44 339.84 29.64 340.58 28.62 341.12C27.62 341.64 26.48 341.9 25.2 341.9H19.35ZM17.46 350V329.18H20.28V350H17.46ZM40.953 350.3C39.533 350.3 38.253 349.98 37.113 349.34C35.973 348.68 35.073 347.79 34.413 346.67C33.753 345.55 33.423 344.28 33.423 342.86C33.423 341.46 33.743 340.2 34.383 339.08C35.043 337.96 35.923 337.08 37.023 336.44C38.143 335.78 39.393 335.45 40.773 335.45C42.093 335.45 43.253 335.75 44.253 336.35C45.273 336.95 46.063 337.78 46.623 338.84C47.203 339.9 47.493 341.1 47.493 342.44C47.493 342.64 47.483 342.86 47.463 343.1C47.443 343.32 47.403 343.58 47.343 343.88H35.313V341.63H45.903L44.913 342.5C44.913 341.54 44.743 340.73 44.403 340.07C44.063 339.39 43.583 338.87 42.963 338.51C42.343 338.13 41.593 337.94 40.713 337.94C39.793 337.94 38.983 338.14 38.283 338.54C37.583 338.94 37.043 339.5 36.663 340.22C36.283 340.94 36.093 341.79 36.093 342.77C36.093 343.77 36.293 344.65 36.693 345.41C37.093 346.15 37.663 346.73 38.403 347.15C39.143 347.55 39.993 347.75 40.953 347.75C41.753 347.75 42.483 347.61 43.143 347.33C43.823 347.05 44.403 346.63 44.883 346.07L46.623 347.84C45.943 348.64 45.103 349.25 44.103 349.67C43.123 350.09 42.073 350.3 40.953 350.3ZM50.437 350V335.75H53.137V350H50.437ZM53.137 341.87L52.117 341.42C52.117 339.6 52.537 338.15 53.377 337.07C54.217 335.99 55.427 335.45 57.007 335.45C57.727 335.45 58.377 335.58 58.957 335.84C59.537 336.08 60.077 336.49 60.577 337.07L58.807 338.9C58.507 338.58 58.177 338.35 57.817 338.21C57.457 338.07 57.037 338 56.557 338C55.557 338 54.737 338.32 54.097 338.96C53.457 339.6 53.137 340.57 53.137 341.87ZM64.4595 350V333.62C64.4595 332.56 64.6895 331.64 65.1495 330.86C65.6095 330.06 66.2395 329.43 67.0395 328.97C67.8595 328.51 68.8095 328.28 69.8895 328.28C70.7095 328.28 71.4195 328.42 72.0195 328.7C72.6195 328.98 73.1695 329.39 73.6695 329.93L71.8995 331.67C71.6395 331.39 71.3495 331.18 71.0295 331.04C70.7095 330.88 70.3195 330.8 69.8595 330.8C68.9995 330.8 68.3295 331.05 67.8495 331.55C67.3895 332.05 67.1595 332.74 67.1595 333.62V350H64.4595ZM60.9495 338.21V335.75H71.6895V338.21H60.9495ZM80.0916 350.3C78.6916 350.3 77.4316 349.97 76.3116 349.31C75.1916 348.65 74.3016 347.76 73.6416 346.64C72.9816 345.5 72.6516 344.23 72.6516 342.83C72.6516 341.45 72.9816 340.21 73.6416 339.11C74.3016 337.99 75.1916 337.1 76.3116 336.44C77.4316 335.78 78.6916 335.45 80.0916 335.45C81.4716 335.45 82.7216 335.78 83.8416 336.44C84.9816 337.08 85.8816 337.96 86.5416 339.08C87.2016 340.2 87.5316 341.45 87.5316 342.83C87.5316 344.23 87.2016 345.5 86.5416 346.64C85.8816 347.76 84.9816 348.65 83.8416 349.31C82.7216 349.97 81.4716 350.3 80.0916 350.3ZM80.0916 347.69C80.9916 347.69 81.7916 347.48 82.4916 347.06C83.1916 346.64 83.7416 346.07 84.1416 345.35C84.5416 344.61 84.7416 343.77 84.7416 342.83C84.7416 341.91 84.5316 341.09 84.1116 340.37C83.7116 339.65 83.1616 339.09 82.4616 338.69C81.7816 338.27 80.9916 338.06 80.0916 338.06C79.1916 338.06 78.3916 338.27 77.6916 338.69C76.9916 339.09 76.4416 339.65 76.0416 340.37C75.6416 341.09 75.4416 341.91 75.4416 342.83C75.4416 343.77 75.6416 344.61 76.0416 345.35C76.4416 346.07 76.9916 346.64 77.6916 347.06C78.3916 347.48 79.1916 347.69 80.0916 347.69ZM90.5737 350V335.75H93.2738V350H90.5737ZM93.2738 341.87L92.2538 341.42C92.2538 339.6 92.6738 338.15 93.5138 337.07C94.3538 335.99 95.5638 335.45 97.1438 335.45C97.8638 335.45 98.5138 335.58 99.0938 335.84C99.6738 336.08 100.214 336.49 100.714 337.07L98.9438 338.9C98.6438 338.58 98.3138 338.35 97.9538 338.21C97.5938 338.07 97.1738 338 96.6938 338C95.6938 338 94.8738 338.32 94.2338 338.96C93.5938 339.6 93.2738 340.57 93.2738 341.87ZM102.673 350V335.75H105.373V350H102.673ZM112.303 350V341.39C112.303 340.33 111.973 339.5 111.313 338.9C110.673 338.28 109.863 337.97 108.883 337.97C108.223 337.97 107.633 338.11 107.113 338.39C106.593 338.67 106.173 339.06 105.853 339.56C105.533 340.06 105.373 340.66 105.373 341.36L104.263 340.82C104.263 339.74 104.493 338.8 104.953 338C105.433 337.2 106.083 336.58 106.903 336.14C107.723 335.68 108.643 335.45 109.663 335.45C110.663 335.45 111.563 335.67 112.363 336.11C113.183 336.55 113.823 337.17 114.283 337.97C114.763 338.77 115.003 339.72 115.003 340.82V350H112.303ZM121.933 350V341.39C121.933 340.33 121.603 339.5 120.943 338.9C120.303 338.28 119.503 337.97 118.543 337.97C117.883 337.97 117.283 338.11 116.743 338.39C116.223 338.67 115.803 339.06 115.483 339.56C115.163 340.06 115.003 340.66 115.003 341.36L113.473 340.82C113.533 339.72 113.823 338.78 114.343 338C114.883 337.2 115.573 336.58 116.413 336.14C117.253 335.68 118.173 335.45 119.173 335.45C120.213 335.45 121.143 335.67 121.963 336.11C122.783 336.55 123.433 337.17 123.913 337.97C124.413 338.77 124.663 339.73 124.663 340.85V350H121.933ZM134.397 350.3C133.097 350.3 131.917 349.98 130.857 349.34C129.797 348.68 128.957 347.79 128.337 346.67C127.737 345.55 127.437 344.29 127.437 342.89C127.437 341.49 127.737 340.23 128.337 339.11C128.957 337.99 129.787 337.1 130.827 336.44C131.887 335.78 133.077 335.45 134.397 335.45C135.477 335.45 136.437 335.68 137.277 336.14C138.137 336.58 138.827 337.2 139.347 338C139.867 338.78 140.157 339.69 140.217 340.73V345.02C140.157 346.04 139.867 346.95 139.347 347.75C138.847 348.55 138.167 349.18 137.307 349.64C136.467 350.08 135.497 350.3 134.397 350.3ZM134.847 347.75C136.187 347.75 137.267 347.3 138.087 346.4C138.907 345.48 139.317 344.31 139.317 342.89C139.317 341.91 139.127 341.06 138.747 340.34C138.387 339.6 137.867 339.03 137.187 338.63C136.507 338.21 135.717 338 134.817 338C133.917 338 133.117 338.21 132.417 338.63C131.737 339.05 131.197 339.63 130.797 340.37C130.417 341.09 130.227 341.92 130.227 342.86C130.227 343.82 130.417 344.67 130.797 345.41C131.197 346.13 131.747 346.7 132.447 347.12C133.147 347.54 133.947 347.75 134.847 347.75ZM139.137 350V346.16L139.647 342.68L139.137 339.23V335.75H141.867V350H139.137ZM155.878 350V341.69C155.878 340.61 155.538 339.72 154.858 339.02C154.178 338.32 153.298 337.97 152.218 337.97C151.498 337.97 150.858 338.13 150.298 338.45C149.738 338.77 149.298 339.21 148.978 339.77C148.658 340.33 148.498 340.97 148.498 341.69L147.388 341.06C147.388 339.98 147.628 339.02 148.108 338.18C148.588 337.34 149.258 336.68 150.118 336.2C150.978 335.7 151.948 335.45 153.028 335.45C154.108 335.45 155.058 335.72 155.878 336.26C156.718 336.8 157.378 337.51 157.858 338.39C158.338 339.25 158.578 340.17 158.578 341.15V350H155.878ZM145.798 350V335.75H148.498V350H145.798ZM168.744 350.3C167.344 350.3 166.074 349.97 164.934 349.31C163.814 348.65 162.924 347.76 162.264 346.64C161.624 345.5 161.304 344.24 161.304 342.86C161.304 341.46 161.624 340.2 162.264 339.08C162.924 337.96 163.814 337.08 164.934 336.44C166.074 335.78 167.344 335.45 168.744 335.45C169.844 335.45 170.864 335.66 171.804 336.08C172.744 336.48 173.554 337.07 174.234 337.85L172.434 339.65C171.994 339.13 171.454 338.74 170.814 338.48C170.194 338.2 169.504 338.06 168.744 338.06C167.844 338.06 167.044 338.27 166.344 338.69C165.644 339.09 165.094 339.65 164.694 340.37C164.294 341.09 164.094 341.92 164.094 342.86C164.094 343.8 164.294 344.63 164.694 345.35C165.094 346.07 165.644 346.64 166.344 347.06C167.044 347.48 167.844 347.69 168.744 347.69C169.504 347.69 170.194 347.56 170.814 347.3C171.454 347.02 172.004 346.62 172.464 346.1L174.234 347.9C173.574 348.66 172.764 349.25 171.804 349.67C170.864 350.09 169.844 350.3 168.744 350.3ZM183.219 350.3C181.799 350.3 180.519 349.98 179.379 349.34C178.239 348.68 177.339 347.79 176.679 346.67C176.019 345.55 175.689 344.28 175.689 342.86C175.689 341.46 176.009 340.2 176.649 339.08C177.309 337.96 178.189 337.08 179.289 336.44C180.409 335.78 181.659 335.45 183.039 335.45C184.359 335.45 185.519 335.75 186.519 336.35C187.539 336.95 188.329 337.78 188.889 338.84C189.469 339.9 189.759 341.1 189.759 342.44C189.759 342.64 189.749 342.86 189.729 343.1C189.709 343.32 189.669 343.58 189.609 343.88H177.579V341.63H188.169L187.179 342.5C187.179 341.54 187.009 340.73 186.669 340.07C186.329 339.39 185.849 338.87 185.229 338.51C184.609 338.13 183.859 337.94 182.979 337.94C182.059 337.94 181.249 338.14 180.549 338.54C179.849 338.94 179.309 339.5 178.929 340.22C178.549 340.94 178.359 341.79 178.359 342.77C178.359 343.77 178.559 344.65 178.959 345.41C179.359 346.15 179.929 346.73 180.669 347.15C181.409 347.55 182.259 347.75 183.219 347.75C184.019 347.75 184.749 347.61 185.409 347.33C186.089 347.05 186.669 346.63 187.149 346.07L188.889 347.84C188.209 348.64 187.369 349.25 186.369 349.67C185.389 350.09 184.339 350.3 183.219 350.3Z" fill="white"/>
<circle cx="371" cy="204" r="103" fill="#5DCA76"/>
<circle cx="371.5" cy="204.5" r="92.5" fill="#EFFCF2"/>
<path d="M329.234 235H322.008V187.344L307.125 193.008V186.406L328.648 178.125H329.234V235ZM389.547 213.242C389.547 216.862 389.13 220.078 388.297 222.891C387.464 225.677 386.266 228.021 384.703 229.922C383.141 231.849 381.227 233.307 378.961 234.297C376.695 235.286 374.104 235.781 371.188 235.781C368.297 235.781 365.706 235.299 363.414 234.336C361.122 233.346 359.182 231.875 357.594 229.922C356.005 228.021 354.794 225.677 353.961 222.891C353.128 220.078 352.711 216.862 352.711 213.242V199.922C352.711 196.302 353.128 193.099 353.961 190.312C354.794 187.5 356.005 185.13 357.594 183.203C359.156 181.276 361.07 179.818 363.336 178.828C365.628 177.812 368.219 177.305 371.109 177.305C374.026 177.305 376.617 177.812 378.883 178.828C381.174 179.818 383.115 181.276 384.703 183.203C386.266 185.13 387.464 187.5 388.297 190.312C389.13 193.099 389.547 196.302 389.547 199.922V213.242ZM359.977 211.797L382.125 194.805C381.917 192.93 381.539 191.276 380.992 189.844C380.471 188.385 379.755 187.174 378.844 186.211C377.958 185.221 376.865 184.479 375.562 183.984C374.286 183.49 372.802 183.242 371.109 183.242C369.391 183.242 367.867 183.516 366.539 184.062C365.237 184.583 364.13 185.352 363.219 186.367C362.125 187.643 361.305 189.297 360.758 191.328C360.237 193.333 359.977 195.664 359.977 198.32V207.852C359.977 208.503 359.977 209.154 359.977 209.805C359.977 210.456 359.977 211.12 359.977 211.797ZM382.281 214.766V206.719C382.281 206.328 382.281 205.586 382.281 204.492C382.281 203.372 382.281 202.448 382.281 201.719L360.172 218.633C360.406 220.534 360.823 222.214 361.422 223.672C362.021 225.104 362.802 226.289 363.766 227.227C364.651 228.112 365.719 228.789 366.969 229.258C368.219 229.701 369.625 229.922 371.188 229.922C372.828 229.922 374.286 229.674 375.562 229.18C376.839 228.685 377.919 227.969 378.805 227.031C380.003 225.755 380.875 224.089 381.422 222.031C381.995 219.974 382.281 217.552 382.281 214.766ZM437.594 213.242C437.594 216.862 437.177 220.078 436.344 222.891C435.51 225.677 434.312 228.021 432.75 229.922C431.188 231.849 429.273 233.307 427.008 234.297C424.742 235.286 422.151 235.781 419.234 235.781C416.344 235.781 413.753 235.299 411.461 234.336C409.169 233.346 407.229 231.875 405.641 229.922C404.052 228.021 402.841 225.677 402.008 222.891C401.174 220.078 400.758 216.862 400.758 213.242V199.922C400.758 196.302 401.174 193.099 402.008 190.312C402.841 187.5 404.052 185.13 405.641 183.203C407.203 181.276 409.117 179.818 411.383 178.828C413.674 177.812 416.266 177.305 419.156 177.305C422.073 177.305 424.664 177.812 426.93 178.828C429.221 179.818 431.161 181.276 432.75 183.203C434.312 185.13 435.51 187.5 436.344 190.312C437.177 193.099 437.594 196.302 437.594 199.922V213.242ZM408.023 211.797L430.172 194.805C429.964 192.93 429.586 191.276 429.039 189.844C428.518 188.385 427.802 187.174 426.891 186.211C426.005 185.221 424.911 184.479 423.609 183.984C422.333 183.49 420.849 183.242 419.156 183.242C417.438 183.242 415.914 183.516 414.586 184.062C413.284 184.583 412.177 185.352 411.266 186.367C410.172 187.643 409.352 189.297 408.805 191.328C408.284 193.333 408.023 195.664 408.023 198.32V207.852C408.023 208.503 408.023 209.154 408.023 209.805C408.023 210.456 408.023 211.12 408.023 211.797ZM430.328 214.766V206.719C430.328 206.328 430.328 205.586 430.328 204.492C430.328 203.372 430.328 202.448 430.328 201.719L408.219 218.633C408.453 220.534 408.87 222.214 409.469 223.672C410.068 225.104 410.849 226.289 411.812 227.227C412.698 228.112 413.766 228.789 415.016 229.258C416.266 229.701 417.672 229.922 419.234 229.922C420.875 229.922 422.333 229.674 423.609 229.18C424.885 228.685 425.966 227.969 426.852 227.031C428.049 225.755 428.922 224.089 429.469 222.031C430.042 219.974 430.328 217.552 430.328 214.766Z" fill="#62C976"/>
<path d="M290.93 350L299.45 329.18H301.49L309.98 350H306.92L299.93 332.39H300.98L293.93 350H290.93ZM294.98 345.29V342.83H305.93V345.29H294.98ZM318.47 350.3C317.07 350.3 315.8 349.97 314.66 349.31C313.54 348.65 312.65 347.76 311.99 346.64C311.35 345.5 311.03 344.24 311.03 342.86C311.03 341.46 311.35 340.2 311.99 339.08C312.65 337.96 313.54 337.08 314.66 336.44C315.8 335.78 317.07 335.45 318.47 335.45C319.57 335.45 320.59 335.66 321.53 336.08C322.47 336.48 323.28 337.07 323.96 337.85L322.16 339.65C321.72 339.13 321.18 338.74 320.54 338.48C319.92 338.2 319.23 338.06 318.47 338.06C317.57 338.06 316.77 338.27 316.07 338.69C315.37 339.09 314.82 339.65 314.42 340.37C314.02 341.09 313.82 341.92 313.82 342.86C313.82 343.8 314.02 344.63 314.42 345.35C314.82 346.07 315.37 346.64 316.07 347.06C316.77 347.48 317.57 347.69 318.47 347.69C319.23 347.69 319.92 347.56 320.54 347.3C321.18 347.02 321.73 346.62 322.19 346.1L323.96 347.9C323.3 348.66 322.49 349.25 321.53 349.67C320.59 350.09 319.57 350.3 318.47 350.3ZM332.855 350.3C331.455 350.3 330.185 349.97 329.045 349.31C327.925 348.65 327.035 347.76 326.375 346.64C325.735 345.5 325.415 344.24 325.415 342.86C325.415 341.46 325.735 340.2 326.375 339.08C327.035 337.96 327.925 337.08 329.045 336.44C330.185 335.78 331.455 335.45 332.855 335.45C333.955 335.45 334.975 335.66 335.915 336.08C336.855 336.48 337.665 337.07 338.345 337.85L336.545 339.65C336.105 339.13 335.565 338.74 334.925 338.48C334.305 338.2 333.615 338.06 332.855 338.06C331.955 338.06 331.155 338.27 330.455 338.69C329.755 339.09 329.205 339.65 328.805 340.37C328.405 341.09 328.205 341.92 328.205 342.86C328.205 343.8 328.405 344.63 328.805 345.35C329.205 346.07 329.755 346.64 330.455 347.06C331.155 347.48 331.955 347.69 332.855 347.69C333.615 347.69 334.305 347.56 334.925 347.3C335.565 347.02 336.115 346.62 336.575 346.1L338.345 347.9C337.685 348.66 336.875 349.25 335.915 349.67C334.975 350.09 333.955 350.3 332.855 350.3ZM347.33 350.3C345.91 350.3 344.63 349.98 343.49 349.34C342.35 348.68 341.45 347.79 340.79 346.67C340.13 345.55 339.8 344.28 339.8 342.86C339.8 341.46 340.12 340.2 340.76 339.08C341.42 337.96 342.3 337.08 343.4 336.44C344.52 335.78 345.77 335.45 347.15 335.45C348.47 335.45 349.63 335.75 350.63 336.35C351.65 336.95 352.44 337.78 353 338.84C353.58 339.9 353.87 341.1 353.87 342.44C353.87 342.64 353.86 342.86 353.84 343.1C353.82 343.32 353.78 343.58 353.72 343.88H341.69V341.63H352.28L351.29 342.5C351.29 341.54 351.12 340.73 350.78 340.07C350.44 339.39 349.96 338.87 349.34 338.51C348.72 338.13 347.97 337.94 347.09 337.94C346.17 337.94 345.36 338.14 344.66 338.54C343.96 338.94 343.42 339.5 343.04 340.22C342.66 340.94 342.47 341.79 342.47 342.77C342.47 343.77 342.67 344.65 343.07 345.41C343.47 346.15 344.04 346.73 344.78 347.15C345.52 347.55 346.37 347.75 347.33 347.75C348.13 347.75 348.86 347.61 349.52 347.33C350.2 347.05 350.78 346.63 351.26 346.07L353 347.84C352.32 348.64 351.48 349.25 350.48 349.67C349.5 350.09 348.45 350.3 347.33 350.3ZM361.344 350.3C360.544 350.3 359.784 350.2 359.064 350C358.364 349.78 357.714 349.48 357.114 349.1C356.514 348.7 355.994 348.23 355.554 347.69L357.294 345.95C357.814 346.59 358.414 347.07 359.094 347.39C359.774 347.69 360.534 347.84 361.374 347.84C362.214 347.84 362.864 347.7 363.324 347.42C363.784 347.12 364.014 346.71 364.014 346.19C364.014 345.67 363.824 345.27 363.444 344.99C363.084 344.69 362.614 344.45 362.034 344.27C361.454 344.07 360.834 343.88 360.174 343.7C359.534 343.5 358.924 343.25 358.344 342.95C357.764 342.65 357.284 342.24 356.904 341.72C356.544 341.2 356.364 340.51 356.364 339.65C356.364 338.79 356.574 338.05 356.994 337.43C357.414 336.79 357.994 336.3 358.734 335.96C359.494 335.62 360.404 335.45 361.464 335.45C362.584 335.45 363.574 335.65 364.434 336.05C365.314 336.43 366.034 337.01 366.594 337.79L364.854 339.53C364.454 339.01 363.954 338.61 363.354 338.33C362.774 338.05 362.114 337.91 361.374 337.91C360.594 337.91 359.994 338.05 359.574 338.33C359.174 338.59 358.974 338.96 358.974 339.44C358.974 339.92 359.154 340.29 359.514 340.55C359.874 340.81 360.344 341.03 360.924 341.21C361.524 341.39 362.144 341.58 362.784 341.78C363.424 341.96 364.034 342.21 364.614 342.53C365.194 342.85 365.664 343.28 366.024 343.82C366.404 344.36 366.594 345.07 366.594 345.95C366.594 347.29 366.114 348.35 365.154 349.13C364.214 349.91 362.944 350.3 361.344 350.3ZM374.147 350.3C373.347 350.3 372.587 350.2 371.867 350C371.167 349.78 370.517 349.48 369.917 349.1C369.317 348.7 368.797 348.23 368.357 347.69L370.097 345.95C370.617 346.59 371.217 347.07 371.897 347.39C372.577 347.69 373.337 347.84 374.177 347.84C375.017 347.84 375.667 347.7 376.127 347.42C376.587 347.12 376.817 346.71 376.817 346.19C376.817 345.67 376.627 345.27 376.247 344.99C375.887 344.69 375.417 344.45 374.837 344.27C374.257 344.07 373.637 343.88 372.977 343.7C372.337 343.5 371.727 343.25 371.147 342.95C370.567 342.65 370.087 342.24 369.707 341.72C369.347 341.2 369.167 340.51 369.167 339.65C369.167 338.79 369.377 338.05 369.797 337.43C370.217 336.79 370.797 336.3 371.537 335.96C372.297 335.62 373.207 335.45 374.267 335.45C375.387 335.45 376.377 335.65 377.237 336.05C378.117 336.43 378.837 337.01 379.397 337.79L377.657 339.53C377.257 339.01 376.757 338.61 376.157 338.33C375.577 338.05 374.917 337.91 374.177 337.91C373.397 337.91 372.797 338.05 372.377 338.33C371.977 338.59 371.777 338.96 371.777 339.44C371.777 339.92 371.957 340.29 372.317 340.55C372.677 340.81 373.147 341.03 373.727 341.21C374.327 341.39 374.947 341.58 375.587 341.78C376.227 341.96 376.837 342.21 377.417 342.53C377.997 342.85 378.467 343.28 378.827 343.82C379.207 344.36 379.397 345.07 379.397 345.95C379.397 347.29 378.917 348.35 377.957 349.13C377.017 349.91 375.747 350.3 374.147 350.3ZM382.449 350V335.75H385.149V350H382.449ZM383.799 332.9C383.299 332.9 382.889 332.74 382.569 332.42C382.249 332.08 382.089 331.66 382.089 331.16C382.089 330.68 382.249 330.28 382.569 329.96C382.889 329.62 383.299 329.45 383.799 329.45C384.299 329.45 384.709 329.62 385.029 329.96C385.349 330.28 385.509 330.68 385.509 331.16C385.509 331.66 385.349 332.08 385.029 332.42C384.709 332.74 384.299 332.9 383.799 332.9ZM396.628 350.3C395.548 350.3 394.568 350.08 393.688 349.64C392.828 349.18 392.138 348.55 391.618 347.75C391.098 346.95 390.808 346.04 390.748 345.02V340.73C390.808 339.69 391.098 338.78 391.618 338C392.158 337.2 392.858 336.58 393.718 336.14C394.598 335.68 395.568 335.45 396.628 335.45C397.928 335.45 399.098 335.78 400.138 336.44C401.198 337.1 402.028 337.99 402.628 339.11C403.228 340.23 403.528 341.49 403.528 342.89C403.528 344.29 403.228 345.55 402.628 346.67C402.028 347.79 401.198 348.68 400.138 349.34C399.098 349.98 397.928 350.3 396.628 350.3ZM396.178 347.75C397.078 347.75 397.868 347.54 398.548 347.12C399.228 346.7 399.768 346.13 400.168 345.41C400.568 344.67 400.768 343.82 400.768 342.86C400.768 341.92 400.568 341.08 400.168 340.34C399.768 339.6 399.228 339.03 398.548 338.63C397.868 338.21 397.088 338 396.208 338C395.308 338 394.518 338.21 393.838 338.63C393.158 339.03 392.628 339.6 392.248 340.34C391.868 341.08 391.678 341.93 391.678 342.89C391.678 343.83 391.858 344.67 392.218 345.41C392.598 346.13 393.128 346.7 393.808 347.12C394.508 347.54 395.298 347.75 396.178 347.75ZM389.128 350V328.58H391.828V339.23L391.318 342.68L391.828 346.16V350H389.128ZM406.619 350V335.75H409.319V350H406.619ZM407.969 332.9C407.469 332.9 407.059 332.74 406.739 332.42C406.419 332.08 406.259 331.66 406.259 331.16C406.259 330.68 406.419 330.28 406.739 329.96C407.059 329.62 407.469 329.45 407.969 329.45C408.469 329.45 408.879 329.62 409.199 329.96C409.519 330.28 409.679 330.68 409.679 331.16C409.679 331.66 409.519 332.08 409.199 332.42C408.879 332.74 408.469 332.9 407.969 332.9ZM413.298 350V328.58H415.998V350H413.298ZM419.979 350V335.75H422.679V350H419.979ZM421.329 332.9C420.829 332.9 420.419 332.74 420.099 332.42C419.779 332.08 419.619 331.66 419.619 331.16C419.619 330.68 419.779 330.28 420.099 329.96C420.419 329.62 420.829 329.45 421.329 329.45C421.829 329.45 422.239 329.62 422.559 329.96C422.879 330.28 423.039 330.68 423.039 331.16C423.039 331.66 422.879 332.08 422.559 332.42C422.239 332.74 421.829 332.9 421.329 332.9ZM428.848 350V329.78H431.548V350H428.848ZM425.338 338.21V335.75H435.058V338.21H425.338ZM442.383 350.12L436.203 335.75H439.203L443.793 347H442.833L447.663 335.75H450.663L444.003 350.12H442.383ZM438.303 355.97L442.503 347.36L444.003 350.12L441.303 355.97H438.303Z" fill="white"/>
<path d="M23.32 60.24L10.96 31.5H16.96L26.14 54H24.22L33.88 31.5H39.88L26.56 60.24H23.32ZM15.16 71.94L23.56 54.72L26.56 60.24L21.16 71.94H15.16ZM56.2183 60.6C53.4183 60.6 50.8983 59.94 48.6583 58.62C46.4183 57.3 44.6383 55.52 43.3183 53.28C41.9983 51 41.3383 48.46 41.3383 45.66C41.3383 42.9 41.9983 40.42 43.3183 38.22C44.6383 35.98 46.4183 34.2 48.6583 32.88C50.8983 31.56 53.4183 30.9 56.2183 30.9C58.9783 30.9 61.4783 31.56 63.7183 32.88C65.9983 34.16 67.7983 35.92 69.1183 38.16C70.4383 40.4 71.0983 42.9 71.0983 45.66C71.0983 48.46 70.4383 51 69.1183 53.28C67.7983 55.52 65.9983 57.3 63.7183 58.62C61.4783 59.94 58.9783 60.6 56.2183 60.6ZM56.2183 55.38C58.0183 55.38 59.6183 54.96 61.0183 54.12C62.4183 53.28 63.5183 52.14 64.3183 50.7C65.1183 49.22 65.5183 47.54 65.5183 45.66C65.5183 43.82 65.0983 42.18 64.2583 40.74C63.4583 39.3 62.3583 38.18 60.9583 37.38C59.5983 36.54 58.0183 36.12 56.2183 36.12C54.4183 36.12 52.8183 36.54 51.4183 37.38C50.0183 38.18 48.9183 39.3 48.1183 40.74C47.3183 42.18 46.9183 43.82 46.9183 45.66C46.9183 47.54 47.3183 49.22 48.1183 50.7C48.9183 52.14 50.0183 53.28 51.4183 54.12C52.8183 54.96 54.4183 55.38 56.2183 55.38ZM88.6427 60.6C86.3227 60.6 84.2227 60.08 82.3427 59.04C80.5027 57.96 79.0627 56.48 78.0227 54.6C76.9827 52.72 76.4627 50.54 76.4627 48.06V31.5H81.8627V47.82C81.8627 49.38 82.1227 50.74 82.6427 51.9C83.2027 53.02 84.0027 53.88 85.0427 54.48C86.0827 55.08 87.3027 55.38 88.7027 55.38C90.8227 55.38 92.4827 54.72 93.6827 53.4C94.8827 52.04 95.4827 50.18 95.4827 47.82V31.5H100.883V48.06C100.883 50.54 100.363 52.72 99.3227 54.6C98.2827 56.48 96.8427 57.96 95.0027 59.04C93.2027 60.08 91.0827 60.6 88.6427 60.6ZM108.12 60V31.5H113.52V60H108.12ZM113.52 43.74L111.48 42.84C111.48 39.2 112.32 36.3 114 34.14C115.68 31.98 118.1 30.9 121.26 30.9C122.7 30.9 124 31.16 125.16 31.68C126.32 32.16 127.4 32.98 128.4 34.14L124.86 37.8C124.26 37.16 123.6 36.7 122.88 36.42C122.16 36.14 121.32 36 120.36 36C118.36 36 116.72 36.64 115.44 37.92C114.16 39.2 113.52 41.14 113.52 43.74ZM140.011 60L128.731 31.5H134.371L142.531 53.7H140.731L148.831 31.5H151.951L160.051 53.7H158.251L166.411 31.5H172.051L160.831 60H157.651L149.431 38.46H151.411L143.131 60H140.011ZM189.23 60.6C186.39 60.6 183.83 59.96 181.55 58.68C179.27 57.36 177.47 55.58 176.15 53.34C174.83 51.1 174.17 48.56 174.17 45.72C174.17 42.92 174.81 40.4 176.09 38.16C177.41 35.92 179.17 34.16 181.37 32.88C183.61 31.56 186.11 30.9 188.87 30.9C191.51 30.9 193.83 31.5 195.83 32.7C197.87 33.9 199.45 35.56 200.57 37.68C201.73 39.8 202.31 42.2 202.31 44.88C202.31 45.28 202.29 45.72 202.25 46.2C202.21 46.64 202.13 47.16 202.01 47.76H177.95V43.26H199.13L197.15 45C197.15 43.08 196.81 41.46 196.13 40.14C195.45 38.78 194.49 37.74 193.25 37.02C192.01 36.26 190.51 35.88 188.75 35.88C186.91 35.88 185.29 36.28 183.89 37.08C182.49 37.88 181.41 39 180.65 40.44C179.89 41.88 179.51 43.58 179.51 45.54C179.51 47.54 179.91 49.3 180.71 50.82C181.51 52.3 182.65 53.46 184.13 54.3C185.61 55.1 187.31 55.5 189.23 55.5C190.83 55.5 192.29 55.22 193.61 54.66C194.97 54.1 196.13 53.26 197.09 52.14L200.57 55.68C199.21 57.28 197.53 58.5 195.53 59.34C193.57 60.18 191.47 60.6 189.23 60.6ZM223.198 60.6C221.038 60.6 219.078 60.16 217.318 59.28C215.598 58.36 214.218 57.1 213.178 55.5C212.138 53.9 211.558 52.08 211.438 50.04V41.46C211.558 39.38 212.138 37.56 213.178 36C214.258 34.4 215.658 33.16 217.378 32.28C219.138 31.36 221.078 30.9 223.198 30.9C225.798 30.9 228.138 31.56 230.218 32.88C232.338 34.2 233.998 35.98 235.198 38.22C236.398 40.46 236.998 42.98 236.998 45.78C236.998 48.58 236.398 51.1 235.198 53.34C233.998 55.58 232.338 57.36 230.218 58.68C228.138 59.96 225.798 60.6 223.198 60.6ZM222.298 55.5C224.098 55.5 225.678 55.08 227.038 54.24C228.398 53.4 229.478 52.26 230.278 50.82C231.078 49.34 231.478 47.64 231.478 45.72C231.478 43.84 231.078 42.16 230.278 40.68C229.478 39.2 228.398 38.06 227.038 37.26C225.678 36.42 224.118 36 222.358 36C220.558 36 218.978 36.42 217.618 37.26C216.258 38.06 215.198 39.2 214.438 40.68C213.678 42.16 213.298 43.86 213.298 45.78C213.298 47.66 213.658 49.34 214.378 50.82C215.138 52.26 216.198 53.4 217.558 54.24C218.958 55.08 220.538 55.5 222.298 55.5ZM208.198 60V17.16H213.598V38.46L212.578 45.36L213.598 52.32V60H208.198ZM252.18 60.6C250.58 60.6 249.06 60.4 247.62 60C246.22 59.56 244.92 58.96 243.72 58.2C242.52 57.4 241.48 56.46 240.6 55.38L244.08 51.9C245.12 53.18 246.32 54.14 247.68 54.78C249.04 55.38 250.56 55.68 252.24 55.68C253.92 55.68 255.22 55.4 256.14 54.84C257.06 54.24 257.52 53.42 257.52 52.38C257.52 51.34 257.14 50.54 256.38 49.98C255.66 49.38 254.72 48.9 253.56 48.54C252.4 48.14 251.16 47.76 249.84 47.4C248.56 47 247.34 46.5 246.18 45.9C245.02 45.3 244.06 44.48 243.3 43.44C242.58 42.4 242.22 41.02 242.22 39.3C242.22 37.58 242.64 36.1 243.48 34.86C244.32 33.58 245.48 32.6 246.96 31.92C248.48 31.24 250.3 30.9 252.42 30.9C254.66 30.9 256.64 31.3 258.36 32.1C260.12 32.86 261.56 34.02 262.68 35.58L259.2 39.06C258.4 38.02 257.4 37.22 256.2 36.66C255.04 36.1 253.72 35.82 252.24 35.82C250.68 35.82 249.48 36.1 248.64 36.66C247.84 37.18 247.44 37.92 247.44 38.88C247.44 39.84 247.8 40.58 248.52 41.1C249.24 41.62 250.18 42.06 251.34 42.42C252.54 42.78 253.78 43.16 255.06 43.56C256.34 43.92 257.56 44.42 258.72 45.06C259.88 45.7 260.82 46.56 261.54 47.64C262.3 48.72 262.68 50.14 262.68 51.9C262.68 54.58 261.72 56.7 259.8 58.26C257.92 59.82 255.38 60.6 252.18 60.6ZM268.786 60V31.5H274.186V60H268.786ZM271.486 25.8C270.486 25.8 269.666 25.48 269.026 24.84C268.386 24.16 268.066 23.32 268.066 22.32C268.066 21.36 268.386 20.56 269.026 19.92C269.666 19.24 270.486 18.9 271.486 18.9C272.486 18.9 273.306 19.24 273.946 19.92C274.586 20.56 274.906 21.36 274.906 22.32C274.906 23.32 274.586 24.16 273.946 24.84C273.306 25.48 272.486 25.8 271.486 25.8ZM286.524 60V19.56H291.924V60H286.524ZM279.504 36.42V31.5H298.944V36.42H279.504ZM316.555 60.6C313.715 60.6 311.155 59.96 308.875 58.68C306.595 57.36 304.795 55.58 303.475 53.34C302.155 51.1 301.495 48.56 301.495 45.72C301.495 42.92 302.135 40.4 303.415 38.16C304.735 35.92 306.495 34.16 308.695 32.88C310.935 31.56 313.435 30.9 316.195 30.9C318.835 30.9 321.155 31.5 323.155 32.7C325.195 33.9 326.775 35.56 327.895 37.68C329.055 39.8 329.635 42.2 329.635 44.88C329.635 45.28 329.615 45.72 329.575 46.2C329.535 46.64 329.455 47.16 329.335 47.76H305.275V43.26H326.455L324.475 45C324.475 43.08 324.135 41.46 323.455 40.14C322.775 38.78 321.815 37.74 320.575 37.02C319.335 36.26 317.835 35.88 316.075 35.88C314.235 35.88 312.615 36.28 311.215 37.08C309.815 37.88 308.735 39 307.975 40.44C307.215 41.88 306.835 43.58 306.835 45.54C306.835 47.54 307.235 49.3 308.035 50.82C308.835 52.3 309.975 53.46 311.455 54.3C312.935 55.1 314.635 55.5 316.555 55.5C318.155 55.5 319.615 55.22 320.935 54.66C322.295 54.1 323.455 53.26 324.415 52.14L327.895 55.68C326.535 57.28 324.855 58.5 322.855 59.34C320.895 60.18 318.795 60.6 316.555 60.6ZM340.263 60.6C339.143 60.6 338.203 60.22 337.443 59.46C336.723 58.66 336.363 57.72 336.363 56.64C336.363 55.52 336.723 54.6 337.443 53.88C338.203 53.12 339.143 52.74 340.263 52.74C341.383 52.74 342.303 53.12 343.023 53.88C343.783 54.6 344.163 55.52 344.163 56.64C344.163 57.72 343.783 58.66 343.023 59.46C342.303 60.22 341.383 60.6 340.263 60.6ZM364.773 60.6C361.973 60.6 359.433 59.94 357.153 58.62C354.913 57.3 353.133 55.52 351.813 53.28C350.533 51 349.893 48.48 349.893 45.72C349.893 42.92 350.533 40.4 351.813 38.16C353.133 35.92 354.913 34.16 357.153 32.88C359.433 31.56 361.973 30.9 364.773 30.9C366.973 30.9 369.013 31.32 370.893 32.16C372.773 32.96 374.393 34.14 375.753 35.7L372.153 39.3C371.273 38.26 370.193 37.48 368.913 36.96C367.673 36.4 366.293 36.12 364.773 36.12C362.973 36.12 361.373 36.54 359.973 37.38C358.573 38.18 357.473 39.3 356.673 40.74C355.873 42.18 355.473 43.84 355.473 45.72C355.473 47.6 355.873 49.26 356.673 50.7C357.473 52.14 358.573 53.28 359.973 54.12C361.373 54.96 362.973 55.38 364.773 55.38C366.293 55.38 367.673 55.12 368.913 54.6C370.193 54.04 371.293 53.24 372.213 52.2L375.753 55.8C374.433 57.32 372.813 58.5 370.893 59.34C369.013 60.18 366.973 60.6 364.773 60.6ZM393.543 60.6C390.743 60.6 388.223 59.94 385.983 58.62C383.743 57.3 381.963 55.52 380.643 53.28C379.323 51 378.663 48.46 378.663 45.66C378.663 42.9 379.323 40.42 380.643 38.22C381.963 35.98 383.743 34.2 385.983 32.88C388.223 31.56 390.743 30.9 393.543 30.9C396.303 30.9 398.803 31.56 401.043 32.88C403.323 34.16 405.123 35.92 406.443 38.16C407.763 40.4 408.423 42.9 408.423 45.66C408.423 48.46 407.763 51 406.443 53.28C405.123 55.52 403.323 57.3 401.043 58.62C398.803 59.94 396.303 60.6 393.543 60.6ZM393.543 55.38C395.343 55.38 396.943 54.96 398.343 54.12C399.743 53.28 400.843 52.14 401.643 50.7C402.443 49.22 402.843 47.54 402.843 45.66C402.843 43.82 402.423 42.18 401.583 40.74C400.783 39.3 399.683 38.18 398.283 37.38C396.923 36.54 395.343 36.12 393.543 36.12C391.743 36.12 390.143 36.54 388.743 37.38C387.343 38.18 386.243 39.3 385.443 40.74C384.643 42.18 384.243 43.82 384.243 45.66C384.243 47.54 384.643 49.22 385.443 50.7C386.243 52.14 387.343 53.28 388.743 54.12C390.143 54.96 391.743 55.38 393.543 55.38ZM414.507 60V31.5H419.907V60H414.507ZM433.767 60V42.78C433.767 40.66 433.107 39 431.787 37.8C430.507 36.56 428.887 35.94 426.927 35.94C425.607 35.94 424.427 36.22 423.387 36.78C422.347 37.34 421.507 38.12 420.867 39.12C420.227 40.12 419.907 41.32 419.907 42.72L417.687 41.64C417.687 39.48 418.147 37.6 419.067 36C420.027 34.4 421.327 33.16 422.967 32.28C424.607 31.36 426.447 30.9 428.487 30.9C430.487 30.9 432.287 31.34 433.887 32.22C435.527 33.1 436.807 34.34 437.727 35.94C438.687 37.54 439.167 39.44 439.167 41.64V60H433.767ZM453.027 60V42.78C453.027 40.66 452.367 39 451.047 37.8C449.767 36.56 448.167 35.94 446.247 35.94C444.927 35.94 443.727 36.22 442.647 36.78C441.607 37.34 440.767 38.12 440.127 39.12C439.487 40.12 439.167 41.32 439.167 42.72L436.107 41.64C436.227 39.44 436.807 37.56 437.847 36C438.927 34.4 440.307 33.16 441.987 32.28C443.667 31.36 445.507 30.9 447.507 30.9C449.587 30.9 451.447 31.34 453.087 32.22C454.727 33.1 456.027 34.34 456.987 35.94C457.987 37.54 458.487 39.46 458.487 41.7V60H453.027Z" fill="white"/>
</svg>
