<svg width="1819" height="1225" viewBox="0 0 1819 1225" fill="none" xmlns="http://www.w3.org/2000/svg">
<g filter="url(#filter0_d_998_839)">
<rect x="56" y="111" width="1159" height="956" rx="32" fill="#222222"/>
</g>
<circle cx="213" cy="400" r="54" fill="#738DED"/>
<rect x="296" y="346" width="178" height="32" rx="8" fill="#646464"/>
<rect x="296" y="346" width="178" height="32" rx="8" fill="#646464"/>
<rect x="159" y="263" width="178" height="50" rx="8" fill="#646464"/>
<rect x="296" y="384" width="815" height="32" rx="8" fill="#AEAEAE"/>
<rect x="296" y="422" width="815" height="32" rx="8" fill="#AEAEAE"/>
<rect x="296" y="808" width="178" height="32" rx="8" fill="#646464"/>
<rect x="296" y="808" width="178" height="32" rx="8" fill="#646464"/>
<rect x="296" y="846" width="815" height="32" rx="8" fill="#AEAEAE"/>
<rect x="296" y="884" width="815" height="32" rx="8" fill="#AEAEAE"/>
<rect x="208" y="449" width="7" height="158" fill="#738DED"/>
<circle cx="213" cy="631" r="54" fill="#738DED"/>
<rect x="296" y="577" width="178" height="32" rx="8" fill="#646464"/>
<rect x="296" y="577" width="178" height="32" rx="8" fill="#646464"/>
<rect x="296" y="615" width="815" height="32" rx="8" fill="#AEAEAE"/>
<rect x="296" y="653" width="815" height="32" rx="8" fill="#AEAEAE"/>
<rect x="208" y="680" width="7" height="158" fill="#738DED"/>
<circle cx="213" cy="862" r="54" fill="#C4C4C4"/>
<g filter="url(#filter1_d_998_839)">
<rect x="1157.05" y="30" width="631" height="1101" rx="32" transform="rotate(5.63189 1157.05 30)" fill="#222222"/>
<circle cx="1272.93" cy="291.635" r="54" transform="rotate(5.63189 1272.93 291.635)" fill="#738DED"/>
<rect x="1360.83" y="246.041" width="178" height="32" rx="8" transform="rotate(5.63189 1360.83 246.041)" fill="#646464"/>
<rect x="1360.83" y="246.041" width="178" height="32" rx="8" transform="rotate(5.63189 1360.83 246.041)" fill="#646464"/>
<rect x="1232.64" y="149.997" width="178" height="50" rx="8" transform="rotate(5.63189 1232.64 149.997)" fill="#646464"/>
<rect x="1357.1" y="283.858" width="329" height="32" rx="8" transform="rotate(5.63189 1357.1 283.858)" fill="#AEAEAE"/>
<rect x="1353.37" y="321.674" width="329" height="32" rx="8" transform="rotate(5.63189 1353.37 321.674)" fill="#AEAEAE"/>
<rect x="1349.54" y="360.486" width="329" height="32" rx="8" transform="rotate(5.63189 1349.54 360.486)" fill="#AEAEAE"/>
<rect x="1345.81" y="398.303" width="329" height="32" rx="8" transform="rotate(5.63189 1345.81 398.303)" fill="#AEAEAE"/>
<rect x="1327.95" y="579.424" width="329" height="32" rx="8" transform="rotate(5.63189 1327.95 579.424)" fill="#AEAEAE"/>
<rect x="1324.22" y="617.241" width="329" height="32" rx="8" transform="rotate(5.63189 1324.22 617.241)" fill="#AEAEAE"/>
<rect x="1320.39" y="656.053" width="329" height="32" rx="8" transform="rotate(5.63189 1320.39 656.053)" fill="#AEAEAE"/>
<rect x="1316.67" y="693.869" width="329" height="32" rx="8" transform="rotate(5.63189 1316.67 693.869)" fill="#AEAEAE"/>
<rect x="1287.48" y="887.942" width="329" height="32" rx="8" transform="rotate(5.63189 1287.48 887.942)" fill="#AEAEAE"/>
<rect x="1283.75" y="925.758" width="329" height="32" rx="8" transform="rotate(5.63189 1283.75 925.758)" fill="#AEAEAE"/>
<rect x="1279.93" y="964.57" width="329" height="32" rx="8" transform="rotate(5.63189 1279.93 964.57)" fill="#AEAEAE"/>
<rect x="1276.2" y="1002.39" width="329" height="32" rx="8" transform="rotate(5.63189 1276.2 1002.39)" fill="#AEAEAE"/>
<rect x="1291.31" y="849.13" width="178" height="32" rx="8" transform="rotate(5.63189 1291.31 849.13)" fill="#646464"/>
<rect x="1291.31" y="849.13" width="178" height="32" rx="8" transform="rotate(5.63189 1291.31 849.13)" fill="#646464"/>
<rect x="1263.14" y="339.908" width="7" height="208" transform="rotate(5.63189 1263.14 339.908)" fill="#738DED"/>
<circle cx="1243.88" cy="586.206" r="54" transform="rotate(5.63189 1243.88 586.206)" fill="#738DED"/>
<rect x="1331.78" y="540.613" width="178" height="32" rx="8" transform="rotate(5.63189 1331.78 540.613)" fill="#646464"/>
<rect x="1331.78" y="540.613" width="178" height="32" rx="8" transform="rotate(5.63189 1331.78 540.613)" fill="#646464"/>
<rect x="1234.1" y="634.479" width="7" height="208" transform="rotate(5.63189 1234.1 634.479)" fill="#738DED"/>
<circle cx="1203.41" cy="894.724" r="54" transform="rotate(5.63189 1203.41 894.724)" fill="#C4C4C4"/>
</g>
<defs>
<filter id="filter0_d_998_839" x="0" y="59" width="1271" height="1068" filterUnits="userSpaceOnUse" color-interpolation-filters="sRGB">
<feFlood flood-opacity="0" result="BackgroundImageFix"/>
<feColorMatrix in="SourceAlpha" type="matrix" values="0 0 0 0 0 0 0 0 0 0 0 0 0 0 0 0 0 0 127 0" result="hardAlpha"/>
<feMorphology radius="20" operator="dilate" in="SourceAlpha" result="effect1_dropShadow_998_839"/>
<feOffset dy="4"/>
<feGaussianBlur stdDeviation="18"/>
<feComposite in2="hardAlpha" operator="out"/>
<feColorMatrix type="matrix" values="0 0 0 0 0 0 0 0 0 0 0 0 0 0 0 0 0 0 0.2 0"/>
<feBlend mode="normal" in2="BackgroundImageFix" result="effect1_dropShadow_998_839"/>
<feBlend mode="normal" in="SourceGraphic" in2="effect1_dropShadow_998_839" result="shape"/>
</filter>
<filter id="filter1_d_998_839" x="1015.98" y="0.983643" width="802.035" height="1223.64" filterUnits="userSpaceOnUse" color-interpolation-filters="sRGB">
<feFlood flood-opacity="0" result="BackgroundImageFix"/>
<feColorMatrix in="SourceAlpha" type="matrix" values="0 0 0 0 0 0 0 0 0 0 0 0 0 0 0 0 0 0 127 0" result="hardAlpha"/>
<feOffset dy="4"/>
<feGaussianBlur stdDeviation="18"/>
<feComposite in2="hardAlpha" operator="out"/>
<feColorMatrix type="matrix" values="0 0 0 0 0 0 0 0 0 0 0 0 0 0 0 0 0 0 0.25 0"/>
<feBlend mode="normal" in2="BackgroundImageFix" result="effect1_dropShadow_998_839"/>
<feBlend mode="normal" in="SourceGraphic" in2="effect1_dropShadow_998_839" result="shape"/>
</filter>
</defs>
</svg>
