<svg width="1681" height="1179" viewBox="0 0 1681 1179" fill="none" xmlns="http://www.w3.org/2000/svg">
<g filter="url(#filter0_d_998_839)">
<rect x="24" y="104" width="1159" height="956" rx="32" fill="white"/>
</g>
<circle cx="181" cy="393" r="54" fill="#738DED"/>
<rect x="264" y="339" width="178" height="32" rx="8" fill="#646464"/>
<rect x="264" y="339" width="178" height="32" rx="8" fill="#646464"/>
<rect x="127" y="256" width="178" height="50" rx="8" fill="#646464"/>
<rect x="264" y="377" width="815" height="32" rx="8" fill="#AEAEAE"/>
<rect x="264" y="415" width="815" height="32" rx="8" fill="#AEAEAE"/>
<rect x="264" y="801" width="178" height="32" rx="8" fill="#646464"/>
<rect x="264" y="801" width="178" height="32" rx="8" fill="#646464"/>
<rect x="264" y="839" width="815" height="32" rx="8" fill="#AEAEAE"/>
<rect x="264" y="877" width="815" height="32" rx="8" fill="#AEAEAE"/>
<rect x="176" y="442" width="7" height="158" fill="#738DED"/>
<circle cx="181" cy="624" r="54" fill="#738DED"/>
<rect x="264" y="570" width="178" height="32" rx="8" fill="#646464"/>
<rect x="264" y="570" width="178" height="32" rx="8" fill="#646464"/>
<rect x="264" y="608" width="815" height="32" rx="8" fill="#AEAEAE"/>
<rect x="264" y="646" width="815" height="32" rx="8" fill="#AEAEAE"/>
<rect x="176" y="673" width="7" height="158" fill="#738DED"/>
<circle cx="181" cy="855" r="54" fill="#C4C4C4"/>
<g filter="url(#filter1_d_998_839)">
<rect x="1042.05" y="7" width="631" height="1101" rx="32" transform="rotate(5.63189 1042.05 7)" fill="white"/>
</g>
<circle cx="1157.93" cy="268.635" r="54" transform="rotate(5.63189 1157.93 268.635)" fill="#738DED"/>
<rect x="1245.83" y="223.041" width="178" height="32" rx="8" transform="rotate(5.63189 1245.83 223.041)" fill="#646464"/>
<rect x="1245.83" y="223.041" width="178" height="32" rx="8" transform="rotate(5.63189 1245.83 223.041)" fill="#646464"/>
<rect x="1117.64" y="126.997" width="178" height="50" rx="8" transform="rotate(5.63189 1117.64 126.997)" fill="#646464"/>
<rect x="1242.1" y="260.858" width="329" height="32" rx="8" transform="rotate(5.63189 1242.1 260.858)" fill="#AEAEAE"/>
<rect x="1238.37" y="298.675" width="329" height="32" rx="8" transform="rotate(5.63189 1238.37 298.675)" fill="#AEAEAE"/>
<rect x="1234.54" y="337.486" width="329" height="32" rx="8" transform="rotate(5.63189 1234.54 337.486)" fill="#AEAEAE"/>
<rect x="1230.81" y="375.303" width="329" height="32" rx="8" transform="rotate(5.63189 1230.81 375.303)" fill="#AEAEAE"/>
<rect x="1212.95" y="556.424" width="329" height="32" rx="8" transform="rotate(5.63189 1212.95 556.424)" fill="#AEAEAE"/>
<rect x="1209.22" y="594.241" width="329" height="32" rx="8" transform="rotate(5.63189 1209.22 594.241)" fill="#AEAEAE"/>
<rect x="1205.39" y="633.052" width="329" height="32" rx="8" transform="rotate(5.63189 1205.39 633.052)" fill="#AEAEAE"/>
<rect x="1201.67" y="670.869" width="329" height="32" rx="8" transform="rotate(5.63189 1201.67 670.869)" fill="#AEAEAE"/>
<rect x="1172.48" y="864.942" width="329" height="32" rx="8" transform="rotate(5.63189 1172.48 864.942)" fill="#AEAEAE"/>
<rect x="1168.75" y="902.758" width="329" height="32" rx="8" transform="rotate(5.63189 1168.75 902.758)" fill="#AEAEAE"/>
<rect x="1164.93" y="941.57" width="329" height="32" rx="8" transform="rotate(5.63189 1164.93 941.57)" fill="#AEAEAE"/>
<rect x="1161.2" y="979.386" width="329" height="32" rx="8" transform="rotate(5.63189 1161.2 979.386)" fill="#AEAEAE"/>
<rect x="1176.31" y="826.13" width="178" height="32" rx="8" transform="rotate(5.63189 1176.31 826.13)" fill="#646464"/>
<rect x="1176.31" y="826.13" width="178" height="32" rx="8" transform="rotate(5.63189 1176.31 826.13)" fill="#646464"/>
<rect x="1148.14" y="316.908" width="7" height="208" transform="rotate(5.63189 1148.14 316.908)" fill="#738DED"/>
<circle cx="1128.88" cy="563.206" r="54" transform="rotate(5.63189 1128.88 563.206)" fill="#738DED"/>
<rect x="1216.78" y="517.613" width="178" height="32" rx="8" transform="rotate(5.63189 1216.78 517.613)" fill="#646464"/>
<rect x="1216.78" y="517.613" width="178" height="32" rx="8" transform="rotate(5.63189 1216.78 517.613)" fill="#646464"/>
<rect x="1119.1" y="611.479" width="7" height="208" transform="rotate(5.63189 1119.1 611.479)" fill="#738DED"/>
<circle cx="1088.41" cy="871.724" r="54" transform="rotate(5.63189 1088.41 871.724)" fill="#C4C4C4"/>
<defs>
<filter id="filter0_d_998_839" x="0" y="84" width="1207" height="1004" filterUnits="userSpaceOnUse" color-interpolation-filters="sRGB">
<feFlood flood-opacity="0" result="BackgroundImageFix"/>
<feColorMatrix in="SourceAlpha" type="matrix" values="0 0 0 0 0 0 0 0 0 0 0 0 0 0 0 0 0 0 127 0" result="hardAlpha"/>
<feMorphology radius="12" operator="erode" in="SourceAlpha" result="effect1_dropShadow_998_839"/>
<feOffset dy="4"/>
<feGaussianBlur stdDeviation="18"/>
<feComposite in2="hardAlpha" operator="out"/>
<feColorMatrix type="matrix" values="0 0 0 0 0 0 0 0 0 0 0 0 0 0 0 0 0 0 0.2 0"/>
<feBlend mode="normal" in2="BackgroundImageFix" result="effect1_dropShadow_998_839"/>
<feBlend mode="normal" in="SourceGraphic" in2="effect1_dropShadow_998_839" result="shape"/>
</filter>
<filter id="filter1_d_998_839" x="923.98" y="0.983643" width="756.035" height="1177.64" filterUnits="userSpaceOnUse" color-interpolation-filters="sRGB">
<feFlood flood-opacity="0" result="BackgroundImageFix"/>
<feColorMatrix in="SourceAlpha" type="matrix" values="0 0 0 0 0 0 0 0 0 0 0 0 0 0 0 0 0 0 127 0" result="hardAlpha"/>
<feMorphology radius="17" operator="erode" in="SourceAlpha" result="effect1_dropShadow_998_839"/>
<feOffset dy="4"/>
<feGaussianBlur stdDeviation="15"/>
<feComposite in2="hardAlpha" operator="out"/>
<feColorMatrix type="matrix" values="0 0 0 0 0.254167 0 0 0 0 0.254167 0 0 0 0 0.254167 0 0 0 1 0"/>
<feBlend mode="normal" in2="BackgroundImageFix" result="effect1_dropShadow_998_839"/>
<feBlend mode="normal" in="SourceGraphic" in2="effect1_dropShadow_998_839" result="shape"/>
</filter>
</defs>
</svg>
