<svg width="567" height="361" viewBox="0 0 567 361" fill="none" xmlns="http://www.w3.org/2000/svg">
<rect width="567" height="361" rx="41" fill="white"/>
<circle cx="283" cy="155" r="103" fill="#5DCA76"/>
<circle cx="283.5" cy="155.5" r="92.5" fill="#EFFCF2"/>
<path d="M241.234 186H234.008V138.344L219.125 144.008V137.406L240.648 129.125H241.234V186ZM301.547 164.242C301.547 167.862 301.13 171.078 300.297 173.891C299.464 176.677 298.266 179.021 296.703 180.922C295.141 182.849 293.227 184.307 290.961 185.297C288.695 186.286 286.104 186.781 283.188 186.781C280.297 186.781 277.706 186.299 275.414 185.336C273.122 184.346 271.182 182.875 269.594 180.922C268.005 179.021 266.794 176.677 265.961 173.891C265.128 171.078 264.711 167.862 264.711 164.242V150.922C264.711 147.302 265.128 144.099 265.961 141.312C266.794 138.5 268.005 136.13 269.594 134.203C271.156 132.276 273.07 130.818 275.336 129.828C277.628 128.812 280.219 128.305 283.109 128.305C286.026 128.305 288.617 128.812 290.883 129.828C293.174 130.818 295.115 132.276 296.703 134.203C298.266 136.13 299.464 138.5 300.297 141.312C301.13 144.099 301.547 147.302 301.547 150.922V164.242ZM271.977 162.797L294.125 145.805C293.917 143.93 293.539 142.276 292.992 140.844C292.471 139.385 291.755 138.174 290.844 137.211C289.958 136.221 288.865 135.479 287.562 134.984C286.286 134.49 284.802 134.242 283.109 134.242C281.391 134.242 279.867 134.516 278.539 135.062C277.237 135.583 276.13 136.352 275.219 137.367C274.125 138.643 273.305 140.297 272.758 142.328C272.237 144.333 271.977 146.664 271.977 149.32V158.852C271.977 159.503 271.977 160.154 271.977 160.805C271.977 161.456 271.977 162.12 271.977 162.797ZM294.281 165.766V157.719C294.281 157.328 294.281 156.586 294.281 155.492C294.281 154.372 294.281 153.448 294.281 152.719L272.172 169.633C272.406 171.534 272.823 173.214 273.422 174.672C274.021 176.104 274.802 177.289 275.766 178.227C276.651 179.112 277.719 179.789 278.969 180.258C280.219 180.701 281.625 180.922 283.188 180.922C284.828 180.922 286.286 180.674 287.562 180.18C288.839 179.685 289.919 178.969 290.805 178.031C292.003 176.755 292.875 175.089 293.422 173.031C293.995 170.974 294.281 168.552 294.281 165.766ZM349.594 164.242C349.594 167.862 349.177 171.078 348.344 173.891C347.51 176.677 346.312 179.021 344.75 180.922C343.188 182.849 341.273 184.307 339.008 185.297C336.742 186.286 334.151 186.781 331.234 186.781C328.344 186.781 325.753 186.299 323.461 185.336C321.169 184.346 319.229 182.875 317.641 180.922C316.052 179.021 314.841 176.677 314.008 173.891C313.174 171.078 312.758 167.862 312.758 164.242V150.922C312.758 147.302 313.174 144.099 314.008 141.312C314.841 138.5 316.052 136.13 317.641 134.203C319.203 132.276 321.117 130.818 323.383 129.828C325.674 128.812 328.266 128.305 331.156 128.305C334.073 128.305 336.664 128.812 338.93 129.828C341.221 130.818 343.161 132.276 344.75 134.203C346.312 136.13 347.51 138.5 348.344 141.312C349.177 144.099 349.594 147.302 349.594 150.922V164.242ZM320.023 162.797L342.172 145.805C341.964 143.93 341.586 142.276 341.039 140.844C340.518 139.385 339.802 138.174 338.891 137.211C338.005 136.221 336.911 135.479 335.609 134.984C334.333 134.49 332.849 134.242 331.156 134.242C329.438 134.242 327.914 134.516 326.586 135.062C325.284 135.583 324.177 136.352 323.266 137.367C322.172 138.643 321.352 140.297 320.805 142.328C320.284 144.333 320.023 146.664 320.023 149.32V158.852C320.023 159.503 320.023 160.154 320.023 160.805C320.023 161.456 320.023 162.12 320.023 162.797ZM342.328 165.766V157.719C342.328 157.328 342.328 156.586 342.328 155.492C342.328 154.372 342.328 153.448 342.328 152.719L320.219 169.633C320.453 171.534 320.87 173.214 321.469 174.672C322.068 176.104 322.849 177.289 323.812 178.227C324.698 179.112 325.766 179.789 327.016 180.258C328.266 180.701 329.672 180.922 331.234 180.922C332.875 180.922 334.333 180.674 335.609 180.18C336.885 179.685 337.966 178.969 338.852 178.031C340.049 176.755 340.922 175.089 341.469 173.031C342.042 170.974 342.328 168.552 342.328 165.766Z" fill="#62C976"/>
<path d="M116.072 300L112.703 284.15H115.105L116.951 294.258L117.273 296.528L117.669 294.258L120.203 284.15H121.946L124.466 294.258L124.891 296.748L125.286 294.258L127.044 284.15H129.446L126.077 300H123.938L121.463 290.288L121.053 287.827L120.657 290.288L118.211 300H116.072ZM134.09 300L130.721 284.15H133.123L134.969 294.258L135.291 296.528L135.687 294.258L138.221 284.15H139.964L142.483 294.258L142.908 296.748L143.304 294.258L145.062 284.15H147.464L144.095 300H141.956L139.48 290.288L139.07 287.827L138.675 290.288L136.229 300H134.09ZM152.107 300L148.738 284.15H151.141L152.986 294.258L153.309 296.528L153.704 294.258L156.238 284.15H157.981L160.501 294.258L160.926 296.748L161.321 294.258L163.079 284.15H165.481L162.112 300H159.974L157.498 290.288L157.088 287.827L156.692 290.288L154.246 300H152.107ZM173.318 298.242C173.318 297.666 173.494 297.173 173.846 296.763C174.197 296.353 174.729 296.147 175.442 296.147C176.146 296.147 176.678 296.353 177.039 296.763C177.41 297.163 177.596 297.656 177.596 298.242C177.596 298.818 177.41 299.302 177.039 299.692C176.668 300.083 176.136 300.278 175.442 300.278C174.739 300.278 174.207 300.083 173.846 299.692C173.494 299.292 173.318 298.809 173.318 298.242ZM187.894 306.401C187.64 306.401 187.342 306.372 187 306.313C186.658 306.255 186.399 306.206 186.224 306.167L186.663 303.955C186.907 303.975 187.146 303.989 187.381 303.999C187.625 304.019 187.815 304.028 187.952 304.028C188.323 304.028 188.66 303.926 188.963 303.721C189.275 303.516 189.554 303.271 189.798 302.988C190.032 302.705 190.232 302.412 190.398 302.109C190.574 301.807 190.711 301.558 190.809 301.362L191.893 299.253L185.066 284.15H188.099L192.449 294.375L193.152 296.294L193.899 294.434L197.986 284.15H201.019L192.977 302.446C192.791 302.856 192.552 303.291 192.259 303.75C191.976 304.209 191.629 304.634 191.219 305.024C190.809 305.415 190.33 305.742 189.783 306.006C189.236 306.27 188.606 306.401 187.894 306.401ZM203.875 291.929C203.875 290.786 204.041 289.727 204.373 288.75C204.705 287.764 205.184 286.909 205.809 286.187C206.424 285.464 207.176 284.897 208.064 284.487C208.953 284.067 209.954 283.857 211.067 283.857C212.19 283.857 213.196 284.067 214.085 284.487C214.983 284.897 215.745 285.464 216.37 286.187C216.985 286.909 217.459 287.764 217.791 288.75C218.123 289.727 218.289 290.786 218.289 291.929V292.251C218.289 293.394 218.123 294.453 217.791 295.43C217.459 296.406 216.985 297.256 216.37 297.979C215.745 298.701 214.988 299.268 214.1 299.678C213.211 300.088 212.21 300.293 211.097 300.293C209.974 300.293 208.963 300.088 208.064 299.678C207.176 299.268 206.424 298.701 205.809 297.979C205.184 297.256 204.705 296.406 204.373 295.43C204.041 294.453 203.875 293.394 203.875 292.251V291.929ZM206.585 292.251C206.585 293.032 206.678 293.779 206.863 294.492C207.049 295.195 207.332 295.815 207.713 296.353C208.084 296.89 208.553 297.314 209.119 297.627C209.686 297.939 210.345 298.096 211.097 298.096C211.839 298.096 212.488 297.939 213.045 297.627C213.611 297.314 214.085 296.89 214.466 296.353C214.837 295.815 215.115 295.195 215.301 294.492C215.486 293.779 215.579 293.032 215.579 292.251V291.929C215.579 291.157 215.481 290.42 215.286 289.717C215.101 289.004 214.822 288.379 214.451 287.842C214.07 287.305 213.597 286.88 213.03 286.567C212.474 286.245 211.819 286.084 211.067 286.084C210.315 286.084 209.661 286.245 209.104 286.567C208.548 286.88 208.084 287.305 207.713 287.842C207.332 288.379 207.049 289.004 206.863 289.717C206.678 290.42 206.585 291.157 206.585 291.929V292.251ZM233.099 300L232.938 297.817C232.41 298.599 231.751 299.209 230.96 299.648C230.169 300.078 229.256 300.293 228.221 300.293C227.391 300.293 226.639 300.166 225.965 299.912C225.291 299.648 224.715 299.243 224.236 298.696C223.758 298.149 223.387 297.456 223.123 296.616C222.869 295.767 222.742 294.751 222.742 293.569V284.15H225.452V293.599C225.452 294.458 225.521 295.171 225.657 295.737C225.794 296.304 225.999 296.753 226.272 297.085C226.546 297.427 226.878 297.666 227.269 297.803C227.669 297.939 228.128 298.008 228.646 298.008C229.251 298.008 229.793 297.939 230.271 297.803C230.75 297.656 231.165 297.456 231.517 297.202C231.81 296.997 232.063 296.753 232.278 296.47C232.503 296.177 232.688 295.859 232.835 295.518V284.15H235.56V300H233.099ZM251.058 283.857C251.556 283.857 252.073 283.892 252.61 283.96C253.157 284.028 253.567 284.121 253.841 284.238L253.475 286.89C252.947 286.772 252.444 286.689 251.966 286.641C251.497 286.582 251.004 286.553 250.486 286.553C249.822 286.553 249.222 286.636 248.685 286.802C248.147 286.958 247.679 287.192 247.278 287.505C246.917 287.778 246.6 288.115 246.326 288.516C246.062 288.906 245.843 289.346 245.667 289.834V300H242.942V284.15H245.521L245.638 286.274L245.652 286.67C246.297 285.801 247.068 285.117 247.967 284.619C248.875 284.111 249.905 283.857 251.058 283.857ZM260.213 300L256.844 284.15H259.246L261.092 294.258L261.414 296.528L261.81 294.258L264.344 284.15H266.087L268.606 294.258L269.031 296.748L269.427 294.258L271.185 284.15H273.587L270.218 300H268.079L265.604 290.288L265.193 287.827L264.798 290.288L262.352 300H260.213ZM283.709 300.293C282.596 300.293 281.57 300.103 280.633 299.722C279.705 299.341 278.909 298.809 278.245 298.125C277.581 297.441 277.063 296.631 276.692 295.693C276.321 294.756 276.136 293.735 276.136 292.632V292.017C276.136 290.737 276.341 289.595 276.751 288.589C277.161 287.573 277.708 286.714 278.392 286.011C279.065 285.317 279.832 284.785 280.691 284.414C281.561 284.043 282.449 283.857 283.357 283.857C284.5 283.857 285.496 284.058 286.346 284.458C287.205 284.849 287.918 285.391 288.484 286.084C289.051 286.787 289.471 287.612 289.744 288.56C290.027 289.507 290.169 290.532 290.169 291.636V292.852H278.846V292.954C278.914 293.726 279.065 294.404 279.3 294.99C279.544 295.576 279.876 296.094 280.296 296.543C280.726 297.021 281.243 297.397 281.849 297.671C282.454 297.944 283.123 298.081 283.855 298.081C284.822 298.081 285.682 297.886 286.434 297.495C287.186 297.104 287.811 296.587 288.309 295.942L289.964 297.231C289.437 298.032 288.646 298.745 287.591 299.37C286.546 299.985 285.252 300.293 283.709 300.293ZM283.357 286.084C282.811 286.084 282.293 286.187 281.805 286.392C281.316 286.587 280.877 286.875 280.486 287.256C280.096 287.646 279.764 288.125 279.49 288.691C279.227 289.248 279.041 289.893 278.934 290.625H287.459V290.493C287.459 290.005 287.366 289.482 287.181 288.926C286.995 288.359 286.736 287.871 286.404 287.461C286.072 287.051 285.652 286.719 285.145 286.465C284.646 286.211 284.051 286.084 283.357 286.084ZM308.157 292.251C308.157 292.944 308.104 293.613 307.996 294.258C307.898 294.893 307.752 295.488 307.557 296.045C307.293 296.777 306.946 297.437 306.517 298.022C306.097 298.599 305.589 299.077 304.993 299.458C304.563 299.722 304.09 299.927 303.572 300.073C303.064 300.22 302.513 300.293 301.917 300.293C301.233 300.293 300.608 300.21 300.042 300.044C299.485 299.878 298.982 299.639 298.533 299.326C298.318 299.17 298.113 298.999 297.918 298.813C297.723 298.628 297.537 298.423 297.361 298.198L297.229 300H294.739V277.5H297.449V285.85C297.674 285.566 297.923 285.312 298.196 285.088C298.47 284.854 298.763 284.653 299.075 284.487C299.466 284.282 299.896 284.126 300.364 284.019C300.833 283.911 301.341 283.857 301.888 283.857C302.571 283.857 303.201 283.95 303.777 284.136C304.354 284.321 304.876 284.58 305.345 284.912C305.765 285.225 306.141 285.605 306.473 286.055C306.805 286.494 307.098 286.987 307.352 287.534C307.615 288.149 307.815 288.833 307.952 289.585C308.089 290.327 308.157 291.113 308.157 291.943V292.251ZM305.447 291.943C305.447 291.445 305.413 290.962 305.345 290.493C305.286 290.015 305.193 289.565 305.066 289.146C304.891 288.628 304.661 288.154 304.378 287.725C304.095 287.295 303.748 286.958 303.338 286.714C303.055 286.538 302.737 286.401 302.386 286.304C302.034 286.206 301.644 286.157 301.214 286.157C300.745 286.157 300.315 286.221 299.925 286.348C299.534 286.465 299.188 286.631 298.885 286.846C298.572 287.07 298.294 287.334 298.05 287.637C297.815 287.93 297.615 288.252 297.449 288.604V295.532C297.625 295.884 297.83 296.211 298.064 296.514C298.309 296.807 298.587 297.065 298.899 297.29C299.212 297.515 299.563 297.69 299.954 297.817C300.345 297.935 300.774 297.993 301.243 297.993C301.692 297.993 302.103 297.939 302.474 297.832C302.845 297.715 303.177 297.549 303.47 297.334C303.86 297.061 304.188 296.714 304.451 296.294C304.715 295.874 304.925 295.405 305.081 294.888C305.208 294.497 305.301 294.077 305.359 293.628C305.418 293.179 305.447 292.72 305.447 292.251V291.943ZM323.274 295.796C323.274 295.474 323.211 295.186 323.084 294.932C322.957 294.668 322.742 294.429 322.439 294.214C322.137 293.999 321.736 293.804 321.238 293.628C320.74 293.442 320.12 293.276 319.378 293.13C318.47 292.944 317.64 292.72 316.888 292.456C316.146 292.192 315.511 291.875 314.983 291.504C314.446 291.143 314.031 290.718 313.738 290.229C313.445 289.731 313.299 289.155 313.299 288.501C313.299 287.856 313.45 287.256 313.753 286.699C314.056 286.133 314.48 285.64 315.027 285.22C315.574 284.8 316.224 284.468 316.976 284.224C317.737 283.979 318.572 283.857 319.48 283.857C320.457 283.857 321.336 283.984 322.117 284.238C322.898 284.492 323.562 284.844 324.109 285.293C324.656 285.742 325.076 286.27 325.369 286.875C325.672 287.471 325.823 288.115 325.823 288.809H323.113C323.113 288.467 323.025 288.135 322.85 287.812C322.674 287.48 322.43 287.188 322.117 286.934C321.805 286.68 321.424 286.475 320.975 286.318C320.535 286.162 320.037 286.084 319.48 286.084C318.904 286.084 318.396 286.147 317.957 286.274C317.527 286.401 317.171 286.572 316.888 286.787C316.595 287.002 316.375 287.251 316.229 287.534C316.082 287.817 316.009 288.11 316.009 288.413C316.009 288.726 316.067 289.004 316.185 289.248C316.302 289.492 316.507 289.712 316.8 289.907C317.083 290.103 317.464 290.278 317.942 290.435C318.431 290.591 319.046 290.742 319.788 290.889C320.765 291.094 321.639 291.333 322.41 291.606C323.182 291.87 323.831 292.188 324.358 292.559C324.886 292.939 325.286 293.379 325.56 293.877C325.843 294.375 325.984 294.951 325.984 295.605C325.984 296.309 325.823 296.948 325.501 297.524C325.188 298.101 324.749 298.594 324.183 299.004C323.616 299.414 322.938 299.731 322.146 299.956C321.355 300.181 320.491 300.293 319.554 300.293C318.479 300.293 317.522 300.151 316.683 299.868C315.843 299.575 315.135 299.189 314.559 298.711C313.973 298.242 313.523 297.695 313.211 297.07C312.908 296.445 312.757 295.796 312.757 295.122H315.467C315.506 295.679 315.652 296.147 315.906 296.528C316.17 296.909 316.497 297.217 316.888 297.451C317.269 297.686 317.693 297.852 318.162 297.949C318.631 298.047 319.095 298.096 319.554 298.096C320.276 298.096 320.906 298.013 321.443 297.847C321.98 297.671 322.4 297.432 322.703 297.129C322.889 296.943 323.03 296.738 323.128 296.514C323.226 296.289 323.274 296.05 323.274 295.796ZM331.185 284.15H339.285V297.656H344.456V300H331.185V297.656H336.575V286.509H331.185V284.15ZM336.224 279.99C336.224 279.756 336.258 279.536 336.326 279.331C336.404 279.126 336.521 278.95 336.678 278.804C336.805 278.677 336.966 278.579 337.161 278.511C337.366 278.433 337.596 278.394 337.85 278.394C338.104 278.394 338.328 278.433 338.523 278.511C338.719 278.579 338.88 278.677 339.007 278.804C339.163 278.94 339.28 279.111 339.358 279.316C339.437 279.521 339.476 279.746 339.476 279.99C339.476 280.43 339.339 280.796 339.065 281.089C338.792 281.382 338.387 281.528 337.85 281.528C337.303 281.528 336.893 281.382 336.619 281.089C336.355 280.796 336.224 280.43 336.224 279.99ZM355.193 280.312V284.15H361.229V286.245H355.193V294.858C355.193 295.474 355.271 295.981 355.428 296.382C355.584 296.782 355.799 297.1 356.072 297.334C356.346 297.578 356.658 297.749 357.01 297.847C357.371 297.944 357.752 297.993 358.152 297.993C358.445 297.993 358.748 297.979 359.061 297.949C359.373 297.91 359.681 297.866 359.983 297.817C360.276 297.769 360.55 297.72 360.804 297.671C361.067 297.612 361.282 297.563 361.448 297.524L361.829 299.443C361.604 299.58 361.331 299.702 361.009 299.81C360.687 299.907 360.335 299.99 359.954 300.059C359.573 300.137 359.168 300.195 358.738 300.234C358.318 300.273 357.898 300.293 357.479 300.293C356.775 300.293 356.116 300.195 355.501 300C354.896 299.795 354.368 299.473 353.919 299.033C353.47 298.604 353.113 298.047 352.85 297.363C352.596 296.67 352.469 295.835 352.469 294.858V286.245H348.309V284.15H352.469V280.312H355.193ZM373.797 300.293C372.684 300.293 371.658 300.103 370.721 299.722C369.793 299.341 368.997 298.809 368.333 298.125C367.669 297.441 367.151 296.631 366.78 295.693C366.409 294.756 366.224 293.735 366.224 292.632V292.017C366.224 290.737 366.429 289.595 366.839 288.589C367.249 287.573 367.796 286.714 368.479 286.011C369.153 285.317 369.92 284.785 370.779 284.414C371.648 284.043 372.537 283.857 373.445 283.857C374.588 283.857 375.584 284.058 376.434 284.458C377.293 284.849 378.006 285.391 378.572 286.084C379.139 286.787 379.559 287.612 379.832 288.56C380.115 289.507 380.257 290.532 380.257 291.636V292.852H368.934V292.954C369.002 293.726 369.153 294.404 369.388 294.99C369.632 295.576 369.964 296.094 370.384 296.543C370.813 297.021 371.331 297.397 371.937 297.671C372.542 297.944 373.211 298.081 373.943 298.081C374.91 298.081 375.77 297.886 376.521 297.495C377.273 297.104 377.898 296.587 378.396 295.942L380.052 297.231C379.524 298.032 378.733 298.745 377.679 299.37C376.634 299.985 375.34 300.293 373.797 300.293ZM373.445 286.084C372.898 286.084 372.381 286.187 371.893 286.392C371.404 286.587 370.965 286.875 370.574 287.256C370.184 287.646 369.852 288.125 369.578 288.691C369.314 289.248 369.129 289.893 369.021 290.625H377.547V290.493C377.547 290.005 377.454 289.482 377.269 288.926C377.083 288.359 376.824 287.871 376.492 287.461C376.16 287.051 375.74 286.719 375.232 286.465C374.734 286.211 374.139 286.084 373.445 286.084ZM389.529 298.242C389.529 297.666 389.705 297.173 390.057 296.763C390.408 296.353 390.94 296.147 391.653 296.147C392.356 296.147 392.889 296.353 393.25 296.763C393.621 297.163 393.807 297.656 393.807 298.242C393.807 298.818 393.621 299.302 393.25 299.692C392.879 300.083 392.347 300.278 391.653 300.278C390.95 300.278 390.418 300.083 390.057 299.692C389.705 299.292 389.529 298.809 389.529 298.242ZM409.583 298.096C410.071 298.096 410.545 298.018 411.004 297.861C411.473 297.705 411.888 297.485 412.249 297.202C412.61 296.929 412.898 296.606 413.113 296.235C413.338 295.854 413.455 295.444 413.465 295.005H416.028C416.019 295.708 415.833 296.382 415.472 297.026C415.12 297.661 414.646 298.218 414.051 298.696C413.455 299.185 412.771 299.575 412 299.868C411.229 300.151 410.423 300.293 409.583 300.293C408.382 300.293 407.332 300.078 406.434 299.648C405.535 299.219 404.788 298.638 404.192 297.905C403.587 297.183 403.133 296.348 402.83 295.4C402.527 294.443 402.376 293.438 402.376 292.383V291.768C402.376 290.723 402.527 289.722 402.83 288.765C403.133 287.808 403.587 286.963 404.192 286.23C404.788 285.508 405.535 284.932 406.434 284.502C407.332 284.072 408.382 283.857 409.583 283.857C410.521 283.857 411.38 284.009 412.161 284.312C412.952 284.604 413.636 285.005 414.212 285.513C414.778 286.03 415.223 286.641 415.545 287.344C415.867 288.047 416.028 288.799 416.028 289.6H413.465C413.455 289.121 413.348 288.672 413.143 288.252C412.947 287.822 412.679 287.446 412.337 287.124C411.995 286.802 411.585 286.548 411.106 286.362C410.638 286.177 410.13 286.084 409.583 286.084C408.743 286.084 408.035 286.255 407.459 286.597C406.893 286.929 406.434 287.363 406.082 287.9C405.73 288.447 405.477 289.058 405.32 289.731C405.174 290.405 405.101 291.084 405.101 291.768V292.383C405.101 293.076 405.174 293.765 405.32 294.448C405.477 295.122 405.73 295.728 406.082 296.265C406.424 296.812 406.878 297.256 407.444 297.598C408.021 297.93 408.733 298.096 409.583 298.096ZM420.086 291.929C420.086 290.786 420.252 289.727 420.584 288.75C420.916 287.764 421.395 286.909 422.02 286.187C422.635 285.464 423.387 284.897 424.275 284.487C425.164 284.067 426.165 283.857 427.278 283.857C428.401 283.857 429.407 284.067 430.296 284.487C431.194 284.897 431.956 285.464 432.581 286.187C433.196 286.909 433.67 287.764 434.002 288.75C434.334 289.727 434.5 290.786 434.5 291.929V292.251C434.5 293.394 434.334 294.453 434.002 295.43C433.67 296.406 433.196 297.256 432.581 297.979C431.956 298.701 431.199 299.268 430.311 299.678C429.422 300.088 428.421 300.293 427.308 300.293C426.185 300.293 425.174 300.088 424.275 299.678C423.387 299.268 422.635 298.701 422.02 297.979C421.395 297.256 420.916 296.406 420.584 295.43C420.252 294.453 420.086 293.394 420.086 292.251V291.929ZM422.796 292.251C422.796 293.032 422.889 293.779 423.074 294.492C423.26 295.195 423.543 295.815 423.924 296.353C424.295 296.89 424.764 297.314 425.33 297.627C425.896 297.939 426.556 298.096 427.308 298.096C428.05 298.096 428.699 297.939 429.256 297.627C429.822 297.314 430.296 296.89 430.677 296.353C431.048 295.815 431.326 295.195 431.512 294.492C431.697 293.779 431.79 293.032 431.79 292.251V291.929C431.79 291.157 431.692 290.42 431.497 289.717C431.312 289.004 431.033 288.379 430.662 287.842C430.281 287.305 429.808 286.88 429.241 286.567C428.685 286.245 428.03 286.084 427.278 286.084C426.526 286.084 425.872 286.245 425.315 286.567C424.759 286.88 424.295 287.305 423.924 287.842C423.543 288.379 423.26 289.004 423.074 289.717C422.889 290.42 422.796 291.157 422.796 291.929V292.251ZM440.11 284.15L440.184 285.645C440.506 285.088 440.926 284.653 441.443 284.341C441.971 284.028 442.605 283.867 443.348 283.857C443.768 283.857 444.144 283.906 444.476 284.004C444.817 284.092 445.115 284.224 445.369 284.399C445.555 284.536 445.721 284.702 445.867 284.897C446.023 285.093 446.155 285.312 446.263 285.557C446.399 285.332 446.561 285.122 446.746 284.927C446.932 284.731 447.132 284.561 447.347 284.414C447.62 284.248 447.923 284.116 448.255 284.019C448.597 283.921 448.968 283.867 449.368 283.857C449.915 283.857 450.408 283.94 450.848 284.106C451.287 284.263 451.658 284.497 451.961 284.81C452.293 285.161 452.547 285.62 452.723 286.187C452.898 286.743 452.986 287.402 452.986 288.164V300H450.408V288.135C450.408 287.803 450.369 287.51 450.291 287.256C450.213 287.002 450.101 286.792 449.954 286.626C449.798 286.47 449.603 286.353 449.368 286.274C449.144 286.196 448.88 286.157 448.577 286.157C448.255 286.157 447.977 286.201 447.742 286.289C447.508 286.377 447.312 286.494 447.156 286.641C447 286.797 446.878 286.978 446.79 287.183C446.702 287.378 446.644 287.598 446.614 287.842C446.614 287.891 446.614 287.939 446.614 287.988C446.614 288.027 446.614 288.076 446.614 288.135V300H444.036V288.12C444.036 287.788 443.997 287.495 443.919 287.241C443.851 286.987 443.738 286.777 443.582 286.611C443.436 286.455 443.25 286.343 443.025 286.274C442.811 286.196 442.557 286.157 442.264 286.157C441.941 286.157 441.658 286.196 441.414 286.274C441.18 286.343 440.979 286.445 440.813 286.582C440.687 286.689 440.574 286.812 440.477 286.948C440.389 287.085 440.315 287.231 440.257 287.388V300H437.679V284.15H440.11Z" fill="black"/>
</svg>
