<svg width="692" height="157" viewBox="0 0 692 157" fill="none" xmlns="http://www.w3.org/2000/svg">
<path d="M18.1 95.92V73.92H56.6C61.88 73.92 66.5 72.8933 70.46 70.84C74.5667 68.64 77.7933 65.6333 80.14 61.82C82.4867 57.86 83.66 53.24 83.66 47.96C83.66 42.68 82.4867 38.1333 80.14 34.32C77.7933 30.36 74.5667 27.3533 70.46 25.3C66.5 23.1 61.88 22 56.6 22H18.1V-1.04904e-05H57.92C67.6 -1.04904e-05 76.2533 1.97999 83.88 5.93999C91.6533 9.89999 97.74 15.4733 102.14 22.66C106.687 29.8467 108.96 38.28 108.96 47.96C108.96 57.64 106.687 66.0733 102.14 73.26C97.74 80.4467 91.6533 86.02 83.88 89.98C76.2533 93.94 67.6 95.92 57.92 95.92H18.1ZM0.720001 154V-1.04904e-05H26.02V154H0.720001ZM130.408 154V48.4H154.608V154H130.408ZM154.608 95.26L146.248 91.08C146.248 77.7333 149.182 66.9533 155.048 58.74C161.062 50.38 170.082 46.2 182.108 46.2C187.388 46.2 192.155 47.1533 196.408 49.06C200.662 50.9667 204.622 54.0467 208.288 58.3L192.448 74.58C190.542 72.5267 188.415 71.06 186.068 70.18C183.722 69.3 181.008 68.86 177.928 68.86C171.182 68.86 165.608 70.9867 161.208 75.24C156.808 79.4933 154.608 86.1667 154.608 95.26ZM260.995 156.2C251.462 156.2 242.809 153.78 235.035 148.94C227.409 144.1 221.322 137.573 216.775 129.36C212.375 121 210.175 111.687 210.175 101.42C210.175 91.0067 212.375 81.6933 216.775 73.48C221.322 65.12 227.409 58.52 235.035 53.68C242.809 48.6933 251.462 46.2 260.995 46.2C269.062 46.2 276.175 47.96 282.335 51.48C288.642 54.8533 293.629 59.5467 297.295 65.56C300.962 71.5733 302.795 78.3933 302.795 86.02V116.38C302.795 124.007 300.962 130.827 297.295 136.84C293.775 142.853 288.862 147.62 282.555 151.14C276.249 154.513 269.062 156.2 260.995 156.2ZM264.955 133.32C273.902 133.32 281.089 130.313 286.515 124.3C292.089 118.287 294.875 110.587 294.875 101.2C294.875 94.8933 293.629 89.32 291.135 84.48C288.642 79.64 285.122 75.9 280.575 73.26C276.175 70.4733 270.969 69.08 264.955 69.08C259.089 69.08 253.882 70.4733 249.335 73.26C244.935 75.9 241.415 79.64 238.775 84.48C236.282 89.32 235.035 94.8933 235.035 101.2C235.035 107.507 236.282 113.08 238.775 117.92C241.415 122.76 244.935 126.573 249.335 129.36C253.882 132 259.089 133.32 264.955 133.32ZM293.335 154V125.62L297.515 99.88L293.335 74.36V48.4H317.535V154H293.335ZM416.773 154V93.06C416.773 86.02 414.499 80.2267 409.953 75.68C405.553 71.1333 399.833 68.86 392.793 68.86C388.099 68.86 383.919 69.8867 380.253 71.94C376.586 73.9933 373.726 76.8533 371.673 80.52C369.619 84.1867 368.593 88.3667 368.593 93.06L359.133 87.78C359.133 79.7133 360.893 72.6 364.413 66.44C367.933 60.1333 372.773 55.22 378.933 51.7C385.239 48.0333 392.279 46.2 400.053 46.2C407.973 46.2 415.013 48.2533 421.173 52.36C427.333 56.32 432.173 61.5267 435.693 67.98C439.213 74.2867 440.973 80.8867 440.973 87.78V154H416.773ZM344.393 154V48.4H368.593V154H344.393ZM509.785 156.2C500.251 156.2 491.598 153.78 483.825 148.94C476.198 144.1 470.111 137.573 465.565 129.36C461.165 121 458.965 111.687 458.965 101.42C458.965 91.0067 461.165 81.6933 465.565 73.48C470.111 65.12 476.198 58.52 483.825 53.68C491.598 48.6933 500.251 46.2 509.785 46.2C517.851 46.2 524.965 47.96 531.125 51.48C537.431 54.8533 542.418 59.5467 546.085 65.56C549.751 71.5733 551.585 78.3933 551.585 86.02V116.38C551.585 124.007 549.751 130.827 546.085 136.84C542.565 142.853 537.651 147.62 531.345 151.14C525.038 154.513 517.851 156.2 509.785 156.2ZM513.745 133.32C522.691 133.32 529.878 130.313 535.305 124.3C540.878 118.287 543.665 110.587 543.665 101.2C543.665 94.8933 542.418 89.32 539.925 84.48C537.431 79.64 533.911 75.9 529.365 73.26C524.965 70.4733 519.758 69.08 513.745 69.08C507.878 69.08 502.671 70.4733 498.125 73.26C493.725 75.9 490.205 79.64 487.565 84.48C485.071 89.32 483.825 94.8933 483.825 101.2C483.825 107.507 485.071 113.08 487.565 117.92C490.205 122.76 493.725 126.573 498.125 129.36C502.671 132 507.878 133.32 513.745 133.32ZM542.125 154V125.62L546.305 99.88L542.125 74.36V48.4H566.325V154H542.125ZM628.822 154L580.642 48.4H607.482L644.222 134.42H628.382L665.342 48.4H691.082L642.902 154H628.822Z" fill="url(#paint0_linear_1530_704)"/>
<defs>
<linearGradient id="paint0_linear_1530_704" x1="338" y1="-66" x2="338" y2="211" gradientUnits="userSpaceOnUse">
<stop offset="0.375" stop-color="#553418"/>
<stop offset="0.795" stop-color="#DE9630"/>
</linearGradient>
</defs>
</svg>
