<svg width="378" height="116" viewBox="0 0 378 116" fill="none" xmlns="http://www.w3.org/2000/svg">
<path d="M69.68 11.864C69.68 13.4 68.3573 15.6613 65.712 18.648C62.5547 22.232 54.32 33.24 41.008 51.672C41.1787 62.68 41.52 70.232 42.032 74.328C42.288 76.888 42.416 78.7227 42.416 79.832C42.416 82.648 41.904 84.568 40.88 85.592C39.9413 86.5307 38.2773 87 35.888 87C34.096 87 32.3893 86.488 30.768 85.464C29.232 84.3547 28.464 83.032 28.464 81.496C28.464 75.2667 28.336 66.136 28.08 54.104C28.08 53.592 27.7387 52.7387 27.056 51.544C26.3733 50.3493 25.9467 49.5813 25.776 49.24C23.984 46.0827 21.7227 42.584 18.992 38.744C16.3467 34.8187 14.0427 31.8747 12.08 29.912C8.32533 26.1573 5.38133 22.7867 3.248 19.8C1.11467 16.728 0.0480001 14.552 0.0480001 13.272C0.0480001 11.48 0.858667 10.072 2.48 9.048C4.18667 7.93866 6.02133 7.384 7.984 7.384C9.09333 7.384 10.2453 7.68266 11.44 8.28C12.72 8.87733 13.744 9.73066 14.512 10.84C19.5467 18.3493 24.0267 24.5787 27.952 29.528L33.968 37.336C37.6373 33.5813 40.8373 29.8693 43.568 26.2C46.384 22.4453 49.456 18.008 52.784 12.888L54.96 9.56C56.5813 7.34133 59.0987 6.23199 62.512 6.23199C64.1333 6.23199 65.712 6.70133 67.248 7.64C68.8693 8.57866 69.68 9.98666 69.68 11.864ZM119.847 45.912C120.53 47.1067 121.084 48.856 121.511 51.16C121.938 53.3787 122.151 55.384 122.151 57.176C122.151 60.504 121.426 65.24 119.975 71.384C114.087 82.136 105.383 87.512 93.863 87.512C89.5963 87.512 85.2443 86.104 80.807 83.288C76.3697 80.472 73.2977 77.2293 71.591 73.56C69.287 66.2213 68.135 61.5707 68.135 59.608C68.135 56.1947 68.8603 52.568 70.311 48.728C71.847 44.888 73.767 41.56 76.071 38.744C77.5217 36.7813 80.1243 35.1173 83.879 33.752C87.6337 32.3013 91.047 31.576 94.119 31.576C100.092 31.576 105.17 32.728 109.351 35.032C113.532 37.2507 117.031 40.8773 119.847 45.912ZM108.711 66.52C109.138 65.4107 109.351 62.552 109.351 57.944C109.351 55.4693 108.882 53.0373 107.943 50.648C107.09 48.2587 105.81 46.2107 104.103 44.504C103.932 44.3333 103.463 44.0773 102.695 43.736C101.927 43.3093 100.86 42.9253 99.495 42.584C98.215 42.1573 96.7217 41.944 95.015 41.944C90.2363 41.944 86.7377 43.864 84.519 47.704C82.3003 51.544 81.191 55.896 81.191 60.76C81.191 61.6133 81.4043 63.2347 81.831 65.624C82.343 68.0133 82.7697 69.5067 83.111 70.104C83.367 70.7013 84.007 71.5547 85.031 72.664C86.1403 73.688 87.463 74.6267 88.999 75.48C90.6203 76.248 92.2843 76.632 93.991 76.632C97.831 76.632 100.903 75.736 103.207 73.944C105.511 72.0667 107.346 69.592 108.711 66.52ZM180.867 86.744C183.171 88.3653 184.707 90.1573 185.475 92.12C186.328 94.0827 186.755 96.8133 186.755 100.312C186.755 102.019 186.243 103.725 185.219 105.432C184.28 107.139 183.299 108.376 182.275 109.144C174.168 113.581 166.062 115.8 157.955 115.8C153.944 115.8 150.488 115.288 147.587 114.264C144.686 113.24 141.955 111.875 139.395 110.168C137.688 108.888 136.28 107.096 135.171 104.792C134.147 102.573 133.635 100.355 133.635 98.136C133.635 95.064 134.574 92.376 136.451 90.072C138.414 87.768 141.016 86.104 144.259 85.08C143.662 83.8 143.363 82.3067 143.363 80.6C143.363 78.9787 144.558 76.5467 146.947 73.304C142.851 71.9387 139.608 69.5067 137.219 66.008C134.915 62.5093 133.763 58.4133 133.763 53.72C133.763 50.8187 134.446 48.2587 135.811 46.04C137.176 43.736 139.224 41.0907 141.955 38.104C143.832 36.056 146.222 34.5627 149.123 33.624C152.024 32.6853 155.651 32.216 160.003 32.216C163.075 32.216 166.872 32.8987 171.395 34.264C176.771 30.5093 181.507 28.632 185.603 28.632C186.627 28.632 187.779 28.888 189.059 29.4C190.424 29.912 191.448 30.424 192.131 30.936C192.643 31.8747 192.899 33.4533 192.899 35.672C192.899 36.5253 192.515 37.3787 191.747 38.232C191.064 39 190.168 39.384 189.059 39.384L185.987 39.256C184.451 39.0853 183.256 39 182.403 39C181.464 39 180.056 39.0853 178.179 39.256C179.971 41.3893 181.336 43.6507 182.275 46.04C183.299 48.4293 183.811 51.544 183.811 55.384C183.811 58.2853 182.744 61.3147 180.611 64.472C178.478 67.6293 175.96 70.104 173.059 71.896C168.622 74.2853 163.459 75.5227 157.571 75.608C156.888 76.2907 156.291 76.9307 155.779 77.528C155.352 78.04 155.139 78.4667 155.139 78.808C155.139 79.7467 155.95 80.472 157.571 80.984C159.192 81.496 161.667 81.88 164.995 82.136C167.555 82.3067 170.371 82.8613 173.443 83.8C176.6 84.6533 179.075 85.6347 180.867 86.744ZM158.339 65.112C162.264 65.112 165.422 64.0453 167.811 61.912C170.2 59.7787 171.395 56.7493 171.395 52.824C171.395 49.8373 170.328 47.4053 168.195 45.528C166.062 43.6507 163.331 42.712 160.003 42.712C157.87 42.712 155.566 43.096 153.091 43.864C150.702 44.5467 148.995 45.656 147.971 47.192C147.459 47.8747 146.947 49.1973 146.435 51.16C145.923 53.0373 145.667 54.488 145.667 55.512C145.667 56.9627 146.264 58.456 147.459 59.992C148.739 61.4427 150.36 62.68 152.323 63.704C154.371 64.6427 156.376 65.112 158.339 65.112ZM166.403 92.888C161.71 92.4613 158.382 92.0347 156.419 91.608C154.542 91.2667 153.006 90.84 151.811 90.328C147.459 92.632 145.283 95.1493 145.283 97.88C145.283 100.44 146.606 102.36 149.251 103.64C151.896 105.005 154.926 105.688 158.339 105.688C159.875 105.688 161.966 105.517 164.611 105.176C167.256 104.835 169.475 104.237 171.267 103.384C172.462 102.787 173.358 102.189 173.955 101.592C174.552 101.08 174.851 100.099 174.851 98.648C174.851 96.856 173.912 95.4907 172.035 94.552C170.158 93.6133 168.28 93.0587 166.403 92.888ZM199.004 57.688C199.004 52.4827 200.156 48.1733 202.46 44.76C204.764 41.2613 207.964 37.976 212.06 34.904C213.255 34.0507 215.26 33.3253 218.076 32.728C220.892 32.0453 223.367 31.704 225.5 31.704C228.06 31.704 230.748 32.2587 233.564 33.368C236.465 34.392 238.812 35.5867 240.604 36.952C243.761 39.256 245.937 41.944 247.132 45.016C248.327 48.0027 248.924 51.5867 248.924 55.768C248.924 57.56 247.9 59.3093 245.852 61.016C243.889 62.6373 241.756 63.448 239.452 63.448L234.588 63.32C232.113 63.32 228.572 63.4053 223.964 63.576L221.276 63.704C219.399 63.8747 217.991 63.96 217.052 63.96C215.687 63.96 213.809 63.7893 211.42 63.448C211.761 67.4587 213.255 70.616 215.9 72.92C218.545 75.1387 221.404 76.248 224.476 76.248C229.852 76.248 233.607 75.1813 235.74 73.048C237.532 71.768 238.727 70.9573 239.324 70.616C239.921 70.2747 240.86 70.104 242.14 70.104C243.505 70.104 244.7 70.744 245.724 72.024C246.748 73.304 247.26 74.584 247.26 75.864C247.26 77.3147 246.364 78.808 244.572 80.344C242.865 81.7947 240.519 83.3307 237.532 84.952C235.911 85.6347 233.692 86.232 230.876 86.744C228.06 87.256 225.713 87.512 223.836 87.512C220.849 87.512 217.521 86.6587 213.852 84.952C210.183 83.16 207.452 81.1973 205.66 79.064C203.868 76.9307 202.289 73.9013 200.924 69.976C199.644 66.0507 199.004 61.9547 199.004 57.688ZM224.476 54.232C230.535 54.232 234.972 54.0187 237.788 53.592C237.617 51.1173 236.849 49.112 235.484 47.576C234.119 45.9547 232.241 44.5893 229.852 43.48C229.084 43.1387 228.401 42.8827 227.804 42.712C227.207 42.5413 226.524 42.456 225.756 42.456C221.831 42.456 218.503 43.5227 215.772 45.656C213.127 47.7893 211.548 50.52 211.036 53.848C215.303 54.104 219.783 54.232 224.476 54.232ZM296.874 59.352C297.557 59.7787 298.879 60.5893 300.842 61.784C302.89 62.8933 304.255 64.216 304.938 65.752C305.621 67.288 305.962 69.4213 305.962 72.152C305.962 75.224 305.066 77.9547 303.274 80.344C301.482 82.648 299.178 84.44 296.362 85.72C294.399 86.5733 292.266 87.0853 289.962 87.256C287.743 87.4267 285.055 87.512 281.898 87.512C280.191 87.512 277.973 87.256 275.242 86.744C272.597 86.232 270.762 85.7627 269.738 85.336C267.007 83.8 264.703 82.008 262.826 79.96C260.949 77.912 260.01 75.8213 260.01 73.688C260.01 71.9813 260.565 70.616 261.674 69.592C262.783 68.568 264.234 68.056 266.026 68.056C266.965 68.056 267.861 68.312 268.714 68.824C269.653 69.2507 270.293 69.7627 270.634 70.36C271.573 72.5787 273.151 74.2427 275.37 75.352C277.589 76.4613 279.85 77.016 282.154 77.016C290.261 77.016 294.314 75.5653 294.314 72.664C294.314 71.896 294.101 71.2987 293.674 70.872C293.333 70.36 292.821 69.848 292.138 69.336C291.029 68.568 289.45 67.7573 287.402 66.904C285.439 66.0507 283.69 65.4107 282.154 64.984C278.655 64.216 275.242 63.064 271.914 61.528C268.842 59.992 266.325 57.9867 264.362 55.512C262.399 52.952 261.418 49.8373 261.418 46.168C261.418 43.9493 262.229 41.7733 263.85 39.64C265.557 37.4213 267.519 35.7573 269.738 34.648C271.274 34.0507 273.791 33.4107 277.29 32.728C280.789 32.0453 283.178 31.704 284.458 31.704C286.421 31.704 288.554 31.9173 290.858 32.344C293.162 32.6853 294.911 33.2827 296.106 34.136C298.41 35.5013 300.287 36.952 301.738 38.488C303.189 39.9387 303.914 41.6027 303.914 43.48C303.914 44.4187 303.701 45.4427 303.274 46.552C302.847 47.576 302.335 48.216 301.738 48.472C300.458 49.0693 298.965 49.368 297.258 49.368C296.49 49.368 295.85 49.1547 295.338 48.728C294.911 48.3013 294.314 47.6187 293.546 46.68C292.607 45.2293 291.711 44.376 290.858 44.12C289.834 43.864 288.341 43.5653 286.378 43.224C284.415 42.7973 283.093 42.584 282.41 42.584C280.277 42.584 278.229 43.0107 276.266 43.864C274.389 44.7173 273.45 45.8693 273.45 47.32C273.45 49.0267 274.858 50.4773 277.674 51.672C279.466 52.5253 281.429 53.2507 283.562 53.848C285.781 54.4453 287.146 54.8293 287.658 55C288.853 55.256 290.389 55.8533 292.266 56.792C294.229 57.7307 295.765 58.584 296.874 59.352ZM333.522 5.848C333.522 8.06666 333.479 10.6693 333.394 13.656C333.309 16.5573 333.223 18.776 333.138 20.312C332.882 24.664 332.754 29.016 332.754 33.368C332.754 39.0853 332.882 43.6933 333.138 47.192C335.101 42.328 337.874 38.6587 341.458 36.184C345.042 33.624 349.138 32.344 353.746 32.344C356.903 32.344 359.847 33.752 362.578 36.568C365.309 39.384 367.058 42.6693 367.826 46.424C367.911 46.8507 367.954 47.4907 367.954 48.344C367.954 49.368 367.869 50.9893 367.698 53.208C367.442 55 367.314 56.792 367.314 58.584C367.314 63.192 367.485 66.776 367.826 69.336C368.167 71.8107 368.893 73.8587 370.002 75.48C371.111 77.016 372.861 78.2533 375.25 79.192C376.189 79.5333 376.829 80.0027 377.17 80.6C377.597 81.112 377.81 81.9227 377.81 83.032C377.81 84.568 376.999 85.72 375.378 86.488C373.842 87.256 372.349 87.64 370.898 87.64C367.911 87.64 365.223 86.8293 362.834 85.208C360.445 83.5867 358.653 81.4533 357.458 78.808C356.605 77.016 356.05 74.8827 355.794 72.408C355.538 69.9333 355.41 67.032 355.41 63.704L355.538 52.568C355.538 46.5093 353.575 43.48 349.65 43.48C346.834 43.48 344.103 45.784 341.458 50.392C338.813 55 336.679 60.4187 335.058 66.648C333.437 72.8773 332.626 77.9973 332.626 82.008C332.626 83.8853 332.029 85.2933 330.834 86.232C329.725 87.0853 328.573 87.512 327.378 87.512C325.501 87.512 323.794 86.9573 322.258 85.848C320.722 84.6533 319.954 83.3307 319.954 81.88C320.551 75.48 320.85 64.7707 320.85 49.752C320.85 47.0213 320.637 36.9093 320.21 19.416L319.826 7.64C319.826 5.76266 320.679 4.14133 322.386 2.77599C324.093 1.32533 326.013 0.599998 328.146 0.599998C330.023 0.599998 331.389 1.02666 332.242 1.88C333.095 2.73333 333.522 4.056 333.522 5.848Z" fill="url(#paint0_linear_2106_3)"/>
<defs>
<linearGradient id="paint0_linear_2106_3" x1="190.69" y1="119" x2="187.31" y2="-35" gradientUnits="userSpaceOnUse">
<stop stop-color="#D3AC76"/>
<stop offset="0.63" stop-color="#5F4015"/>
</linearGradient>
</defs>
</svg>
